<?xml version="1.0" standalone="yes"?>

<svg version="1.1" viewBox="0.0 0.0 960.0 720.0" fill="none" stroke="none" stroke-linecap="square" stroke-miterlimit="10" xmlns="http://www.w3.org/2000/svg" xmlns:xlink="http://www.w3.org/1999/xlink"><clipPath id="p.0"><path d="m0 0l960.0 0l0 720.0l-960.0 0l0 -720.0z" clip-rule="nonzero"></path></clipPath><g clip-path="url(#p.0)"><path fill="#000000" fill-opacity="0.0" d="m0 0l960.0 0l0 720.0l-960.0 0z" fill-rule="evenodd"></path><path fill="#cfe2f3" d="m104.561676 76.04462l278.3622 0l0 217.7323l-278.3622 0z" fill-rule="evenodd"></path><path stroke="#000000" stroke-width="1.0" stroke-linejoin="round" stroke-linecap="butt" d="m104.561676 76.04462l278.3622 0l0 217.7323l-278.3622 0z" fill-rule="evenodd"></path><path fill="#cfe2f3" d="m577.07666 76.04462l278.36218 0l0 217.7323l-278.36218 0z" fill-rule="evenodd"></path><path stroke="#000000" stroke-width="1.0" stroke-linejoin="round" stroke-linecap="butt" d="m577.07666 76.04462l278.36218 0l0 217.7323l-278.36218 0z" fill-rule="evenodd"></path><path fill="#cfe2f3" d="m333.89285 426.2238l278.3622 0l0 217.73227l-278.3622 0z" fill-rule="evenodd"></path><path stroke="#000000" stroke-width="1.0" stroke-linejoin="round" stroke-linecap="butt" d="m333.89285 426.2238l278.3622 0l0 217.73227l-278.3622 0z" fill-rule="evenodd"></path><path fill="#000000" fill-opacity="0.0" d="m119.15207 91.75773l251.40158 0l0 188.56693l-251.40158 0z" fill-rule="evenodd"></path><path fill="#000000" d="m168.88411 131.47772l0 -22.906242l6.921875 0l4.15625 15.625l4.109375 -15.625l6.9375 0l0 22.906242l-4.296875 0l0 -18.031242l-4.546875 18.031242l-4.453125 0l-4.53125 -18.031242l0 18.031242l-4.296875 0zm25.671875 -8.531242q0 -2.1875 1.078125 -4.234375q1.078125 -2.046875 3.046875 -3.125q1.984375 -1.078125 4.421875 -1.078125q3.765625 0 6.171875 2.453125q2.40625 2.4375 2.40625 6.171875q0 3.765625 -2.4375 6.2499924q-2.421875 2.46875 -6.109375 2.46875q-2.28125 0 -4.359375 -1.03125q-2.0625 -1.03125 -3.140625 -3.0156174q-1.078125 -2.0 -1.078125 -4.859375zm4.5 0.234375q0 2.46875 1.171875 3.78125q1.171875 1.3124924 2.890625 1.3124924q1.71875 0 2.875 -1.3124924q1.171875 -1.3125 1.171875 -3.8125q0 -2.4375 -1.171875 -3.75q-1.15625 -1.3125 -2.875 -1.3125q-1.71875 0 -2.890625 1.3125q-1.171875 1.3125 -1.171875 3.78125zm31.28125 8.296867l-4.078125 0l0 -2.4375q-1.015625 1.421875 -2.40625 2.125q-1.375 0.6875 -2.78125 0.6875q-2.859375 0 -4.90625 -2.296875q-2.03125 -2.3124924 -2.03125 -6.4374924q0 -4.21875 1.984375 -6.40625q1.984375 -2.203125 5.015625 -2.203125q2.78125 0 4.8125 2.3125l0 -8.25l4.390625 0l0 22.906242zm-11.71875 -8.656242q0 2.65625 0.734375 3.84375q1.0625 1.7187424 2.96875 1.7187424q1.515625 0 2.578125 -1.2812424q1.0625 -1.296875 1.0625 -3.859375q0 -2.859375 -1.03125 -4.109375q-1.03125 -1.265625 -2.640625 -1.265625q-1.5625 0 -2.625 1.25q-1.046875 1.234375 -1.046875 3.703125zm25.65625 3.375l4.375 0.734375q-0.84375 2.4062424 -2.671875 3.6718674q-1.8125 1.25 -4.546875 1.25q-4.328125 0 -6.40625 -2.828125q-1.640625 -2.2656174 -1.640625 -5.7187424q0 -4.125 2.15625 -6.453125q2.15625 -2.34375 5.453125 -2.34375q3.703125 0 5.84375 2.453125q2.140625 2.4375 2.046875 7.484375l-11.0 0q0.046875 1.953125 1.0625 3.046875q1.015625 1.0781174 2.53125 1.0781174q1.03125 0 1.734375 -0.5625q0.703125 -0.5624924 1.0625 -1.8124924zm0.25 -4.4375q-0.046875 -1.90625 -0.984375 -2.890625q-0.9375 -1.0 -2.28125 -1.0q-1.4375 0 -2.375 1.046875q-0.9375 1.046875 -0.921875 2.84375l6.5625 0zm7.9375 9.718742l0 -22.906242l4.3906097 0l0 22.906242l-4.3906097 0zm7.3437347 -4.7343674l4.40625 -0.671875q0.28125 1.28125 1.140625 1.9531174q0.859375 0.65625 2.40625 0.65625q1.703125 0 2.5625 -0.625q0.578125 -0.43749237 0.578125 -1.1718674q0 -0.5 -0.3125 -0.828125q-0.328125 -0.3125 -1.46875 -0.578125q-5.3125 -1.171875 -6.734375 -2.140625q-1.96875 -1.34375 -1.96875 -3.734375q0 -2.15625 1.703125 -3.625q1.703125 -1.46875 5.28125 -1.46875q3.40625 0 5.0625 1.109375q1.65625 1.109375 2.28125 3.28125l-4.140625 0.765625q-0.265625 -0.96875 -1.015625 -1.484375q-0.734375 -0.515625 -2.109375 -0.515625q-1.734375 0 -2.484375 0.484375q-0.5 0.34375 -0.5 0.890625q0 0.46875 0.4375 0.796875q0.59375 0.4375 4.09375 1.234375q3.515625 0.796875 4.90625 1.953125q1.375 1.171875 1.375 3.265625q0 2.2812424 -1.90625 3.9218674q-1.90625 1.640625 -5.640625 1.640625q-3.390625 0 -5.375 -1.375q-1.96875 -1.375 -2.578125 -3.7343674zm19.34375 4.7343674l0 -4.3906174l4.390625 0l0 4.3906174l-4.390625 0zm8.765625 -16.593742l4.09375 0l0 2.4375q0.796875 -1.25 2.15625 -2.03125q1.359375 -0.78125 3.015625 -0.78125q2.890625 0 4.90625 2.265625q2.015625 2.265625 2.015625 6.3125q0 4.15625 -2.03125 6.4687424q-2.03125 2.296875 -4.921875 2.296875q-1.375 0 -2.5 -0.546875q-1.109375 -0.546875 -2.34375 -1.875l0 8.359375l-4.390625 0l0 -22.906242zm4.34375 8.015625q0 2.796875 1.109375 4.140625q1.109375 1.3281174 2.703125 1.3281174q1.53125 0 2.546875 -1.2187424q1.015625 -1.234375 1.015625 -4.03125q0 -2.609375 -1.046875 -3.875q-1.046875 -1.265625 -2.59375 -1.265625q-1.609375 0 -2.671875 1.25q-1.0625 1.234375 -1.0625 3.671875zm13.25 -8.015625l4.671875 0l3.96875 11.78125l3.875 -11.78125l4.546875 0l-5.859375 15.968742l-1.046875 2.890625q-0.578125 1.453125 -1.109375 2.21875q-0.515625 0.765625 -1.203125 1.234375q-0.671875 0.484375 -1.671875 0.75q-0.984375 0.265625 -2.234375 0.265625q-1.265625 0 -2.484375 -0.265625l-0.390625 -3.4375q1.03125 0.203125 1.859375 0.203125q1.53125 0 2.265625 -0.90625q0.734375 -0.890625 1.125 -2.28125l-6.3125 -16.640617z" fill-rule="nonzero"></path><path fill="#000000" d="m131.88411 199.79773l0 -17.1875l3.421875 0l4.0625 12.171875q0.5625 1.703125 0.828125 2.546875q0.296875 -0.9375 0.90625 -2.765625l4.125 -11.953125l3.046875 0l0 17.1875l-2.1875 0l0 -14.375l-4.984375 14.375l-2.0625 0l-4.96875 -14.625l0 14.625l-2.1875 0zm19.007812 -6.21875q0 -3.46875 1.921875 -5.125q1.609375 -1.390625 3.921875 -1.390625q2.5625 0 4.1875 1.6875q1.625 1.6875 1.625 4.640625q0 2.40625 -0.71875 3.78125q-0.71875 1.375 -2.09375 2.140625q-1.375 0.765625 -3.0 0.765625q-2.625 0 -4.234375 -1.671875q-1.609375 -1.6875 -1.609375 -4.828125zm2.171875 0q0 2.390625 1.03125 3.578125q1.046875 1.1875 2.640625 1.1875q1.5625 0 2.609375 -1.1875q1.046875 -1.203125 1.046875 -3.65625q0 -2.3125 -1.0625 -3.5q-1.046875 -1.1875 -2.59375 -1.1875q-1.59375 0 -2.640625 1.1875q-1.03125 1.1875 -1.03125 3.578125zm20.035156 6.21875l0 -1.578125q-1.1875 1.859375 -3.484375 1.859375q-1.484375 0 -2.734375 -0.8125q-1.25 -0.828125 -1.9375 -2.296875q-0.671875 -1.46875 -0.671875 -3.390625q0 -1.859375 0.609375 -3.375q0.625 -1.515625 1.859375 -2.328125q1.25 -0.8125 2.78125 -0.8125q1.125 0 2.0 0.484375q0.890625 0.46875 1.4375 1.234375l0 -6.171875l2.09375 0l0 17.1875l-1.953125 0zm-6.671875 -6.21875q0 2.390625 1.0 3.578125q1.015625 1.1875 2.390625 1.1875q1.390625 0 2.34375 -1.125q0.96875 -1.140625 0.96875 -3.453125q0 -2.5625 -0.984375 -3.75q-0.984375 -1.203125 -2.421875 -1.203125q-1.40625 0 -2.359375 1.15625q-0.9375 1.140625 -0.9375 3.609375zm20.472656 2.203125l2.171875 0.28125q-0.515625 1.90625 -1.90625 2.96875q-1.390625 1.046875 -3.5625 1.046875q-2.734375 0 -4.34375 -1.671875q-1.59375 -1.6875 -1.59375 -4.734375q0 -3.140625 1.609375 -4.875q1.625 -1.734375 4.203125 -1.734375q2.5 0 4.078125 1.703125q1.59375 1.703125 1.59375 4.78125q0 0.1875 -0.015625 0.5625l-9.28125 0q0.109375 2.046875 1.15625 3.140625q1.046875 1.09375 2.609375 1.09375q1.15625 0 1.96875 -0.609375q0.828125 -0.609375 1.3125 -1.953125zm-6.9375 -3.40625l6.953125 0q-0.140625 -1.5625 -0.796875 -2.359375q-1.0 -1.21875 -2.609375 -1.21875q-1.453125 0 -2.453125 0.984375q-0.984375 0.96875 -1.09375 2.59375zm11.707031 7.421875l0 -17.1875l2.109375 0l0 17.1875l-2.109375 0zm14.0 0l-1.953125 0l0 -17.1875l2.109375 0l0 6.140625q1.328125 -1.6875 3.40625 -1.6875q1.140625 0 2.171875 0.46875q1.03125 0.46875 1.6875 1.3125q0.65625 0.828125 1.03125 2.015625q0.375 1.171875 0.375 2.53125q0 3.1875 -1.578125 4.9375q-1.578125 1.75 -3.796875 1.75q-2.203125 0 -3.453125 -1.84375l0 1.5625zm-0.03125 -6.3125q0 2.234375 0.609375 3.234375q1.0 1.625 2.703125 1.625q1.375 0 2.375 -1.203125q1.015625 -1.203125 1.015625 -3.578125q0 -2.4375 -0.96875 -3.59375q-0.953125 -1.171875 -2.328125 -1.171875q-1.390625 0 -2.40625 1.203125q-1.0 1.203125 -1.0 3.484375zm19.550781 4.78125q-1.171875 0.984375 -2.265625 1.40625q-1.078125 0.40625 -2.3125 0.40625q-2.046875 0 -3.15625 -1.0q-1.09375 -1.0 -1.09375 -2.5625q0 -0.921875 0.40625 -1.671875q0.421875 -0.75 1.09375 -1.203125q0.671875 -0.46875 1.515625 -0.703125q0.625 -0.15625 1.875 -0.3125q2.5625 -0.3125 3.765625 -0.734375q0.015625 -0.421875 0.015625 -0.546875q0 -1.28125 -0.609375 -1.8125q-0.796875 -0.71875 -2.390625 -0.71875q-1.5 0 -2.203125 0.53125q-0.703125 0.515625 -1.046875 1.84375l-2.0625 -0.28125q0.28125 -1.328125 0.921875 -2.140625q0.640625 -0.8125 1.859375 -1.25q1.21875 -0.453125 2.828125 -0.453125q1.59375 0 2.59375 0.375q1.0 0.375 1.46875 0.953125q0.46875 0.5625 0.65625 1.4375q0.09375 0.53125 0.09375 1.9375l0 2.8125q0 2.9375 0.140625 3.71875q0.140625 0.78125 0.53125 1.5l-2.203125 0q-0.328125 -0.65625 -0.421875 -1.53125zm-0.171875 -4.71875q-1.15625 0.46875 -3.453125 0.796875q-1.296875 0.1875 -1.84375 0.421875q-0.53125 0.234375 -0.828125 0.6875q-0.28125 0.453125 -0.28125 1.0q0 0.84375 0.625 1.40625q0.640625 0.5625 1.875 0.5625q1.21875 0 2.171875 -0.53125q0.953125 -0.53125 1.390625 -1.453125q0.34375 -0.71875 0.34375 -2.109375l0 -0.78125zm4.2851562 6.25l0 -1.71875l7.921875 -9.09375q-1.34375 0.078125 -2.375 0.078125l-5.078125 0l0 -1.71875l10.171875 0l0 1.40625l-6.734375 7.890625l-1.296875 1.4375q1.40625 -0.09375 2.65625 -0.09375l5.75 0l0 1.8125l-11.015625 0zm21.640625 -4.015625l2.171875 0.28125q-0.515625 1.90625 -1.90625 2.96875q-1.390625 1.046875 -3.5625 1.046875q-2.734375 0 -4.34375 -1.671875q-1.59375 -1.6875 -1.59375 -4.734375q0 -3.140625 1.609375 -4.875q1.625 -1.734375 4.203125 -1.734375q2.5 0 4.078125 1.703125q1.59375 1.703125 1.59375 4.78125q0 0.1875 -0.015625 0.5625l-9.28125 0q0.109375 2.046875 1.15625 3.140625q1.046875 1.09375 2.609375 1.09375q1.15625 0 1.96875 -0.609375q0.828125 -0.609375 1.3125 -1.953125zm-6.9375 -3.40625l6.953125 0q-0.140625 -1.5625 -0.796875 -2.359375q-1.0 -1.21875 -2.609375 -1.21875q-1.453125 0 -2.453125 0.984375q-0.984375 0.96875 -1.09375 2.59375zm18.42186 12.1875l0 -17.21875l1.921875 0l0 1.625q0.6875 -0.953125 1.53125 -1.421875q0.859375 -0.484375 2.078125 -0.484375q1.59375 0 2.8125 0.828125q1.21875 0.8125 1.84375 2.3125q0.625 1.5 0.625 3.28125q0 1.90625 -0.6875 3.4375q-0.6875 1.53125 -2.0 2.34375q-1.296875 0.8125 -2.734375 0.8125q-1.0625 0 -1.90625 -0.4375q-0.828125 -0.453125 -1.375 -1.140625l0 6.0625l-2.109375 0zm1.921875 -10.921875q0 2.40625 0.96875 3.5625q0.96875 1.140625 2.359375 1.140625q1.40625 0 2.40625 -1.1875q1.0 -1.1875 1.0 -3.6875q0 -2.375 -0.984375 -3.5625q-0.96875 -1.1875 -2.328125 -1.1875q-1.359375 0 -2.390625 1.265625q-1.03125 1.25 -1.03125 3.65625zm10.644531 -0.0625q0 -3.46875 1.921875 -5.125q1.609375 -1.390625 3.921875 -1.390625q2.5625 0 4.1875 1.6875q1.625 1.6875 1.625 4.640625q0 2.40625 -0.71875 3.78125q-0.71875 1.375 -2.09375 2.140625q-1.375 0.765625 -3.0 0.765625q-2.625 0 -4.234375 -1.671875q-1.609375 -1.6875 -1.609375 -4.828125zm2.171875 0q0 2.390625 1.03125 3.578125q1.046875 1.1875 2.640625 1.1875q1.5625 0 2.609375 -1.1875q1.046875 -1.203125 1.046875 -3.65625q0 -2.3125 -1.0625 -3.5q-1.046875 -1.1875 -2.59375 -1.1875q-1.59375 0 -2.640625 1.1875q-1.03125 1.1875 -1.03125 3.578125zm20.035156 6.21875l0 -1.578125q-1.1875 1.859375 -3.484375 1.859375q-1.484375 0 -2.734375 -0.8125q-1.25 -0.828125 -1.9375 -2.296875q-0.671875 -1.46875 -0.671875 -3.390625q0 -1.859375 0.609375 -3.375q0.625 -1.515625 1.859375 -2.328125q1.25 -0.8125 2.78125 -0.8125q1.125 0 2.0 0.484375q0.890625 0.46875 1.4375 1.234375l0 -6.171875l2.09375 0l0 17.1875l-1.953125 0zm-6.671875 -6.21875q0 2.390625 1.0 3.578125q1.015625 1.1875 2.390625 1.1875q1.390625 0 2.34375 -1.125q0.96875 -1.140625 0.96875 -3.453125q0 -2.5625 -0.984375 -3.75q-0.984375 -1.203125 -2.421875 -1.203125q-1.40625 0 -2.359375 1.15625q-0.9375 1.140625 -0.9375 3.609375zm20.066406 4.6875q-1.171875 0.984375 -2.265625 1.40625q-1.078125 0.40625 -2.3125 0.40625q-2.046875 0 -3.15625 -1.0q-1.09375 -1.0 -1.09375 -2.5625q0 -0.921875 0.40625 -1.671875q0.421875 -0.75 1.09375 -1.203125q0.671875 -0.46875 1.515625 -0.703125q0.625 -0.15625 1.875 -0.3125q2.5625 -0.3125 3.765625 -0.734375q0.015625 -0.421875 0.015625 -0.546875q0 -1.28125 -0.609375 -1.8125q-0.796875 -0.71875 -2.390625 -0.71875q-1.5 0 -2.203125 0.53125q-0.703125 0.515625 -1.046875 1.84375l-2.0625 -0.28125q0.28125 -1.328125 0.921875 -2.140625q0.640625 -0.8125 1.859375 -1.25q1.21875 -0.453125 2.828125 -0.453125q1.59375 0 2.59375 0.375q1.0 0.375 1.46875 0.953125q0.46875 0.5625 0.65625 1.4375q0.09375 0.53125 0.09375 1.9375l0 2.8125q0 2.9375 0.140625 3.71875q0.140625 0.78125 0.53125 1.5l-2.203125 0q-0.328125 -0.65625 -0.421875 -1.53125zm-0.171875 -4.71875q-1.15625 0.46875 -3.453125 0.796875q-1.296875 0.1875 -1.84375 0.421875q-0.53125 0.234375 -0.828125 0.6875q-0.28125 0.453125 -0.28125 1.0q0 0.84375 0.625 1.40625q0.640625 0.5625 1.875 0.5625q1.21875 0 2.171875 -0.53125q0.953125 -0.53125 1.390625 -1.453125q0.34375 -0.71875 0.34375 -2.109375l0 -0.78125zm10.003906 4.359375l0.3125 1.859375q-0.890625 0.203125 -1.59375 0.203125q-1.15625 0 -1.796875 -0.359375q-0.625 -0.375 -0.890625 -0.96875q-0.25 -0.59375 -0.25 -2.484375l0 -7.171875l-1.546875 0l0 -1.640625l1.546875 0l0 -3.078125l2.09375 -1.265625l0 4.34375l2.125 0l0 1.640625l-2.125 0l0 7.28125q0 0.90625 0.109375 1.171875q0.125 0.25 0.375 0.40625q0.25 0.140625 0.71875 0.140625q0.34375 0 0.921875 -0.078125zm10.183594 0.359375q-1.171875 0.984375 -2.265625 1.40625q-1.078125 0.40625 -2.3125 0.40625q-2.046875 0 -3.15625 -1.0q-1.09375 -1.0 -1.09375 -2.5625q0 -0.921875 0.40625 -1.671875q0.421875 -0.75 1.09375 -1.203125q0.671875 -0.46875 1.515625 -0.703125q0.625 -0.15625 1.875 -0.3125q2.5625 -0.3125 3.765625 -0.734375q0.015625 -0.421875 0.015625 -0.546875q0 -1.28125 -0.609375 -1.8125q-0.796875 -0.71875 -2.390625 -0.71875q-1.5 0 -2.203125 0.53125q-0.703125 0.515625 -1.046875 1.84375l-2.0625 -0.28125q0.28125 -1.328125 0.921875 -2.140625q0.640625 -0.8125 1.859375 -1.25q1.21875 -0.453125 2.828125 -0.453125q1.59375 0 2.59375 0.375q1.0 0.375 1.46875 0.953125q0.46875 0.5625 0.65625 1.4375q0.09375 0.53125 0.09375 1.9375l0 2.8125q0 2.9375 0.140625 3.71875q0.140625 0.78125 0.53125 1.5l-2.203125 0q-0.328125 -0.65625 -0.421875 -1.53125zm-0.171875 -4.71875q-1.15625 0.46875 -3.453125 0.796875q-1.296875 0.1875 -1.84375 0.421875q-0.53125 0.234375 -0.828125 0.6875q-0.28125 0.453125 -0.28125 1.0q0 0.84375 0.625 1.40625q0.640625 0.5625 1.875 0.5625q1.21875 0 2.171875 -0.53125q0.953125 -0.53125 1.390625 -1.453125q0.34375 -0.71875 0.34375 -2.109375l0 -0.78125zm5.4101562 6.25l0 -17.1875l2.109375 0l0 9.796875l5.0 -5.0625l2.71875 0l-4.75 4.625l5.234375 7.828125l-2.59375 0l-4.125 -6.359375l-1.484375 1.421875l0 4.9375l-2.109375 0zm20.109375 -1.53125q-1.171875 0.984375 -2.265625 1.40625q-1.078125 0.40625 -2.3125 0.40625q-2.046875 0 -3.15625 -1.0q-1.09375 -1.0 -1.09375 -2.5625q0 -0.921875 0.40625 -1.671875q0.421875 -0.75 1.09375 -1.203125q0.671875 -0.46875 1.515625 -0.703125q0.625 -0.15625 1.875 -0.3125q2.5625 -0.3125 3.765625 -0.734375q0.015625 -0.421875 0.015625 -0.546875q0 -1.28125 -0.609375 -1.8125q-0.796875 -0.71875 -2.390625 -0.71875q-1.5 0 -2.203125 0.53125q-0.703125 0.515625 -1.046875 1.84375l-2.0625 -0.28125q0.28125 -1.328125 0.921875 -2.140625q0.640625 -0.8125 1.859375 -1.25q1.21875 -0.453125 2.828125 -0.453125q1.59375 0 2.59375 0.375q1.0 0.375 1.46875 0.953125q0.46875 0.5625 0.65625 1.4375q0.09375 0.53125 0.09375 1.9375l0 2.8125q0 2.9375 0.140625 3.71875q0.140625 0.78125 0.53125 1.5l-2.203125 0q-0.328125 -0.65625 -0.421875 -1.53125zm-0.171875 -4.71875q-1.15625 0.46875 -3.453125 0.796875q-1.296875 0.1875 -1.84375 0.421875q-0.53125 0.234375 -0.828125 0.6875q-0.28125 0.453125 -0.28125 1.0q0 0.84375 0.625 1.40625q0.640625 0.5625 1.875 0.5625q1.21875 0 2.171875 -0.53125q0.953125 -0.53125 1.390625 -1.453125q0.34375 -0.71875 0.34375 -2.109375l0 -0.78125z" fill-rule="nonzero"></path><path fill="#000000" d="m178.45052 233.84459q-1.734375 -2.203125 -2.953125 -5.15625q-1.203125 -2.953125 -1.203125 -6.109375q0 -2.796875 0.90625 -5.34375q1.046875 -2.96875 3.25 -5.90625l1.515625 0q-1.421875 2.4375 -1.875 3.46875q-0.71875 1.625 -1.125 3.375q-0.5 2.203125 -0.5 4.40625q0 5.640625 3.5 11.265625l-1.515625 0zm4.2421875 -5.046875l0 -17.1875l5.90625 0q2.015625 0 3.0625 0.25q1.484375 0.34375 2.515625 1.234375q1.359375 1.140625 2.03125 2.9375q0.6875 1.78125 0.6875 4.078125q0 1.953125 -0.46875 3.46875q-0.453125 1.515625 -1.171875 2.515625q-0.703125 0.984375 -1.5625 1.546875q-0.84375 0.5625 -2.046875 0.859375q-1.203125 0.296875 -2.765625 0.296875l-6.1875 0zm2.265625 -2.03125l3.671875 0q1.703125 0 2.65625 -0.3125q0.96875 -0.3125 1.546875 -0.890625q0.8125 -0.8125 1.265625 -2.171875q0.453125 -1.375 0.453125 -3.3125q0 -2.703125 -0.890625 -4.140625q-0.890625 -1.453125 -2.15625 -1.9375q-0.90625 -0.359375 -2.9375 -0.359375l-3.609375 0l0 13.125zm13.175781 2.03125l6.59375 -17.1875l2.453125 0l7.03125 17.1875l-2.59375 0l-2.0 -5.203125l-7.1875 0l-1.890625 5.203125l-2.40625 0zm4.953125 -7.0625l5.828125 0l-1.796875 -4.75q-0.8125 -2.171875 -1.21875 -3.5625q-0.328125 1.65625 -0.921875 3.28125l-1.890625 5.03125zm17.304688 7.0625l0 -15.15625l-5.65625 0l0 -2.03125l13.625 0l0 2.03125l-5.6875 0l0 15.15625l-2.28125 0zm8.410156 0l6.59375 -17.1875l2.453125 0l7.03125 17.1875l-2.59375 0l-2.0 -5.203125l-7.1875 0l-1.890625 5.203125l-2.40625 0zm4.953125 -7.0625l5.828125 0l-1.796875 -4.75q-0.8125 -2.171875 -1.21875 -3.5625q-0.328125 1.65625 -0.921875 3.28125l-1.890625 5.03125zm12.8515625 7.0625l0 -17.1875l6.4375 0q1.96875 0 3.1562347 0.53125q1.1875 0.515625 1.859375 1.609375q0.6875 1.078125 0.6875 2.265625q0 1.09375 -0.609375 2.078125q-0.59375 0.96875 -1.796875 1.5625q1.5625 0.453125 2.390625 1.5625q0.84375 1.09375 0.84375 2.59375q0 1.203125 -0.515625 2.25q-0.5 1.03125 -1.25 1.59375q-0.75 0.5625 -1.8906097 0.859375q-1.125 0.28125 -2.765625 0.28125l-6.546875 0zm2.265625 -9.96875l3.71875 0q1.515625 0 2.171875 -0.1875q0.859375 -0.265625 1.2968597 -0.859375q0.4375 -0.59375 0.4375 -1.5q0 -0.859375 -0.40625 -1.5q-0.40623474 -0.65625 -1.1718597 -0.890625q-0.765625 -0.25 -2.609375 -0.25l-3.4375 0l0 5.1875zm0 7.9375l4.28125 0q1.09375 0 1.546875 -0.078125q0.78125 -0.140625 1.3124847 -0.46875q0.53125 -0.328125 0.859375 -0.953125q0.34375 -0.625 0.34375 -1.453125q0 -0.953125 -0.5 -1.65625q-0.484375 -0.71875 -1.3593597 -1.0q-0.875 -0.296875 -2.515625 -0.296875l-3.96875 0l0 5.90625zm11.945297 2.03125l6.59375 -17.1875l2.453125 0l7.03125 17.1875l-2.59375 0l-2.0 -5.203125l-7.1875 0l-1.890625 5.203125l-2.40625 0zm4.953125 -7.0625l5.828125 0l-1.796875 -4.75q-0.8125 -2.171875 -1.21875 -3.5625q-0.328125 1.65625 -0.921875 3.28125l-1.890625 5.03125zm12.1640625 1.546875l2.140625 -0.1875q0.15625 1.28125 0.703125 2.109375q0.5625 0.828125 1.734375 1.34375q1.171875 0.5 2.640625 0.5q1.296875 0 2.296875 -0.375q1.0 -0.390625 1.484375 -1.0625q0.484375 -0.6875 0.484375 -1.484375q0 -0.796875 -0.46875 -1.40625q-0.46875 -0.609375 -1.546875 -1.015625q-0.6875 -0.265625 -3.0625 -0.828125q-2.359375 -0.578125 -3.3125 -1.078125q-1.234375 -0.640625 -1.84375 -1.59375q-0.59375 -0.96875 -0.59375 -2.140625q0 -1.3125 0.734375 -2.4375q0.75 -1.125 2.15625 -1.703125q1.421875 -0.59375 3.15625 -0.59375q1.90625 0 3.359375 0.609375q1.46875 0.609375 2.25 1.8125q0.796875 1.1875 0.84375 2.703125l-2.171875 0.171875q-0.171875 -1.640625 -1.1875 -2.46875q-1.015625 -0.828125 -3.0 -0.828125q-2.0625 0 -3.015625 0.765625q-0.9375 0.75 -0.9375 1.8125q0 0.921875 0.671875 1.515625q0.65625 0.609375 3.421875 1.234375q2.78125 0.625 3.8125 1.09375q1.5 0.6875 2.203125 1.75q0.71875 1.0625 0.71875 2.4375q0 1.375 -0.78125 2.59375q-0.78125 1.203125 -2.25 1.890625q-1.46875 0.671875 -3.3125 0.671875q-2.328125 0 -3.90625 -0.671875q-1.578125 -0.6875 -2.484375 -2.046875q-0.890625 -1.375 -0.9375 -3.09375zm16.835938 5.515625l0 -17.1875l12.421875 0l0 2.03125l-10.15625 0l0 5.265625l9.5 0l0 2.015625l-9.5 0l0 5.84375l10.546875 0l0 2.03125l-12.8125 0zm17.070312 5.046875l-1.515625 0q3.5 -5.625 3.5 -11.265625q0 -2.203125 -0.5 -4.359375q-0.390625 -1.765625 -1.109375 -3.375q-0.453125 -1.0625 -1.890625 -3.515625l1.515625 0q2.203125 2.9375 3.25 5.90625q0.90625 2.546875 0.90625 5.34375q0 3.15625 -1.21875 6.109375q-1.203125 2.953125 -2.9375 5.15625z" fill-rule="nonzero"></path><path fill="#000000" fill-opacity="0.0" d="m590.54895 91.75773l251.40155 0l0 188.56693l-251.40155 0z" fill-rule="evenodd"></path><path fill="#000000" d="m653.49194 131.47772l0 -19.031242l-6.796875 0l0 -3.875l18.203125 0l0 3.875l-6.78125 0l0 19.031242l-4.625 0zm23.96875 -5.2812424l4.375 0.734375q-0.84375 2.4062424 -2.671875 3.6718674q-1.8125 1.25 -4.546875 1.25q-4.328125 0 -6.40625 -2.828125q-1.640625 -2.2656174 -1.640625 -5.7187424q0 -4.125 2.15625 -6.453125q2.15625 -2.34375 5.453125 -2.34375q3.703125 0 5.84375 2.453125q2.140625 2.4375 2.046875 7.484375l-11.0 0q0.046875 1.953125 1.0625 3.046875q1.015625 1.0781174 2.53125 1.0781174q1.03125 0 1.734375 -0.5625q0.703125 -0.5624924 1.0625 -1.8124924zm0.25 -4.4375q-0.046875 -1.90625 -0.984375 -2.890625q-0.9375 -1.0 -2.28125 -1.0q-1.4375 0 -2.375 1.046875q-0.9375 1.046875 -0.921875 2.84375l6.5625 0zm7.609375 -6.875l4.046875 0l0 2.265625q2.171875 -2.640625 5.171875 -2.640625q1.59375 0 2.765625 0.65625q1.171875 0.65625 1.921875 1.984375q1.09375 -1.328125 2.359375 -1.984375q1.265625 -0.65625 2.703125 -0.65625q1.828125 0 3.09375 0.75q1.265625 0.734375 1.890625 2.171875q0.453125 1.0625 0.453125 3.4375l0 10.609367l-4.390625 0l0 -9.484367q0 -2.46875 -0.453125 -3.1875q-0.609375 -0.9375 -1.875 -0.9375q-0.921875 0 -1.734375 0.5625q-0.8125 0.5625 -1.171875 1.65625q-0.359375 1.078125 -0.359375 3.421875l0 7.9687424l-4.390625 0l0 -9.093742q0 -2.421875 -0.234375 -3.125q-0.234375 -0.703125 -0.734375 -1.046875q-0.484375 -0.34375 -1.328125 -0.34375q-1.015625 0 -1.828125 0.546875q-0.8125 0.546875 -1.171875 1.578125q-0.34375 1.03125 -0.34375 3.421875l0 8.062492l-4.390625 0l0 -16.593742zm28.65625 0l4.09375 0l0 2.4375q0.796875 -1.25 2.15625 -2.03125q1.359375 -0.78125 3.015625 -0.78125q2.890625 0 4.90625 2.265625q2.015625 2.265625 2.015625 6.3125q0 4.15625 -2.03125 6.4687424q-2.03125 2.296875 -4.921875 2.296875q-1.375 0 -2.5 -0.546875q-1.109375 -0.546875 -2.34375 -1.875l0 8.359375l-4.390625 0l0 -22.906242zm4.34375 8.015625q0 2.796875 1.109375 4.140625q1.109375 1.3281174 2.703125 1.3281174q1.53125 0 2.546875 -1.2187424q1.015625 -1.234375 1.015625 -4.03125q0 -2.609375 -1.046875 -3.875q-1.046875 -1.265625 -2.59375 -1.265625q-1.609375 0 -2.671875 1.25q-1.0625 1.234375 -1.0625 3.671875zm15.328125 8.578117l0 -22.906242l4.390625 0l0 22.906242l-4.390625 0zm12.171875 -11.531242l-3.984375 -0.71875q0.671875 -2.40625 2.3125 -3.5625q1.640625 -1.15625 4.875 -1.15625q2.9375 0 4.375 0.703125q1.4375 0.6875 2.015625 1.765625q0.59375 1.0625 0.59375 3.921875l-0.046875 5.125q0 2.1874924 0.203125 3.2343674q0.21875 1.03125 0.796875 2.21875l-4.34375 0q-0.171875 -0.4375 -0.421875 -1.296875q-0.109375 -0.390625 -0.15625 -0.515625q-1.125 1.09375 -2.40625 1.640625q-1.28125 0.546875 -2.734375 0.546875q-2.5625 0 -4.046875 -1.390625q-1.46875 -1.390625 -1.46875 -3.5156174q0 -1.40625 0.671875 -2.5q0.671875 -1.109375 1.875 -1.6875q1.21875 -0.59375 3.5 -1.03125q3.078125 -0.578125 4.265625 -1.078125l0 -0.4375q0 -1.265625 -0.625 -1.796875q-0.625 -0.546875 -2.359375 -0.546875q-1.171875 0 -1.828125 0.46875q-0.65625 0.453125 -1.0625 1.609375zm5.875 3.5625q-0.84375 0.28125 -2.671875 0.671875q-1.828125 0.390625 -2.390625 0.765625q-0.859375 0.609375 -0.859375 1.546875q0 0.921875 0.6875 1.5937424q0.6875 0.671875 1.75 0.671875q1.1875 0 2.265625 -0.7812424q0.796875 -0.59375 1.046875 -1.453125q0.171875 -0.5625 0.171875 -2.140625l0 -0.875zm16.25 -8.625l0 3.5l-3.0 0l0 6.6875q0 2.03125 0.078125 2.375q0.09375 0.328125 0.390625 0.546875q0.3125 0.21874237 0.75 0.21874237q0.609375 0 1.765625 -0.42186737l0.375 3.4062424q-1.53125 0.65625 -3.46875 0.65625q-1.1875 0 -2.140625 -0.390625q-0.953125 -0.40625 -1.40625 -1.03125q-0.4375 -0.640625 -0.609375 -1.71875q-0.140625 -0.7656174 -0.140625 -3.0937424l0 -7.234375l-2.015625 0l0 -3.5l2.015625 0l0 -3.296875l4.40625 -2.5625l0 5.859375l3.0 0zm12.65625 11.3125l4.375 0.734375q-0.84375 2.4062424 -2.671875 3.6718674q-1.8125 1.25 -4.546875 1.25q-4.328125 0 -6.40625 -2.828125q-1.640625 -2.2656174 -1.640625 -5.7187424q0 -4.125 2.15625 -6.453125q2.15625 -2.34375 5.453125 -2.34375q3.703125 0 5.84375 2.453125q2.140625 2.4375 2.046875 7.484375l-11.0 0q0.046875 1.953125 1.0625 3.046875q1.015625 1.0781174 2.53125 1.0781174q1.03125 0 1.734375 -0.5625q0.703125 -0.5624924 1.0625 -1.8124924zm0.25 -4.4375q-0.046875 -1.90625 -0.984375 -2.890625q-0.9375 -1.0 -2.28125 -1.0q-1.4375 0 -2.375 1.046875q-0.9375 1.046875 -0.921875 2.84375l6.5625 0z" fill-rule="nonzero"></path><path fill="#000000" d="m633.322 199.79773l0 -17.1875l3.421875 0l4.0625 12.171875q0.5625 1.703125 0.828125 2.546875q0.296875 -0.9375 0.90625 -2.765625l4.125 -11.953125l3.046875 0l0 17.1875l-2.1875 0l0 -14.375l-4.984375 14.375l-2.0625 0l-4.96875 -14.625l0 14.625l-2.1875 0zm19.007812 -6.21875q0 -3.46875 1.921875 -5.125q1.609375 -1.390625 3.921875 -1.390625q2.5625 0 4.1875 1.6875q1.625 1.6875 1.625 4.640625q0 2.40625 -0.71875 3.78125q-0.71875 1.375 -2.09375 2.140625q-1.375 0.765625 -3.0 0.765625q-2.625 0 -4.234375 -1.671875q-1.609375 -1.6875 -1.609375 -4.828125zm2.171875 0q0 2.390625 1.03125 3.578125q1.046875 1.1875 2.640625 1.1875q1.5625 0 2.609375 -1.1875q1.046875 -1.203125 1.046875 -3.65625q0 -2.3125 -1.0625 -3.5q-1.046875 -1.1875 -2.59375 -1.1875q-1.59375 0 -2.640625 1.1875q-1.03125 1.1875 -1.03125 3.578125zm20.035156 6.21875l0 -1.578125q-1.1875 1.859375 -3.484375 1.859375q-1.484375 0 -2.734375 -0.8125q-1.25 -0.828125 -1.9375 -2.296875q-0.671875 -1.46875 -0.671875 -3.390625q0 -1.859375 0.609375 -3.375q0.625 -1.515625 1.859375 -2.328125q1.25 -0.8125 2.78125 -0.8125q1.125 0 2.0 0.484375q0.890625 0.46875 1.4375 1.234375l0 -6.171875l2.09375 0l0 17.1875l-1.953125 0zm-6.671875 -6.21875q0 2.390625 1.0 3.578125q1.015625 1.1875 2.390625 1.1875q1.390625 0 2.34375 -1.125q0.96875 -1.140625 0.96875 -3.453125q0 -2.5625 -0.984375 -3.75q-0.984375 -1.203125 -2.421875 -1.203125q-1.40625 0 -2.359375 1.15625q-0.9375 1.140625 -0.9375 3.609375zm20.472656 2.203125l2.171875 0.28125q-0.515625 1.90625 -1.90625 2.96875q-1.390625 1.046875 -3.5625 1.046875q-2.734375 0 -4.34375 -1.671875q-1.59375 -1.6875 -1.59375 -4.734375q0 -3.140625 1.609375 -4.875q1.625 -1.734375 4.203125 -1.734375q2.5 0 4.078125 1.703125q1.59375 1.703125 1.59375 4.78125q0 0.1875 -0.015625 0.5625l-9.28125 0q0.109375 2.046875 1.15625 3.140625q1.046875 1.09375 2.609375 1.09375q1.15625 0 1.96875 -0.609375q0.828125 -0.609375 1.3125 -1.953125zm-6.9375 -3.40625l6.953125 0q-0.140625 -1.5625 -0.796875 -2.359375q-1.0 -1.21875 -2.609375 -1.21875q-1.453125 0 -2.453125 0.984375q-0.984375 0.96875 -1.09375 2.59375zm11.707031 7.421875l0 -17.1875l2.109375 0l0 17.1875l-2.109375 0zm10.9375 0l0 -1.71875l7.921875 -9.09375q-1.34375 0.078125 -2.375 0.078125l-5.078125 0l0 -1.71875l10.171875 0l0 1.40625l-6.734375 7.890625l-1.296875 1.4375q1.40625 -0.09375 2.65625 -0.09375l5.75 0l0 1.8125l-11.015625 0zm21.234375 -1.53125q-1.171875 0.984375 -2.265625 1.40625q-1.078125 0.40625 -2.3125 0.40625q-2.046875 0 -3.15625 -1.0q-1.09375 -1.0 -1.09375 -2.5625q0 -0.921875 0.40625 -1.671875q0.421875 -0.75 1.09375 -1.203125q0.671875 -0.46875 1.515625 -0.703125q0.625 -0.15625 1.875 -0.3125q2.5625 -0.3125 3.765625 -0.734375q0.015625 -0.421875 0.015625 -0.546875q0 -1.28125 -0.609375 -1.8125q-0.796875 -0.71875 -2.390625 -0.71875q-1.5 0 -2.203125 0.53125q-0.703125 0.515625 -1.046875 1.84375l-2.0625 -0.28125q0.28125 -1.328125 0.921875 -2.140625q0.640625 -0.8125 1.859375 -1.25q1.21875 -0.453125 2.828125 -0.453125q1.59375 0 2.59375 0.375q1.0 0.375 1.46875 0.953125q0.46875 0.5625 0.65625 1.4375q0.09375 0.53125 0.09375 1.9375l0 2.8125q0 2.9375 0.140625 3.71875q0.140625 0.78125 0.53125 1.5l-2.203125 0q-0.328125 -0.65625 -0.421875 -1.53125zm-0.171875 -4.71875q-1.15625 0.46875 -3.453125 0.796875q-1.296875 0.1875 -1.84375 0.421875q-0.53125 0.234375 -0.828125 0.6875q-0.28125 0.453125 -0.28125 1.0q0 0.84375 0.625 1.40625q0.640625 0.5625 1.875 0.5625q1.21875 0 2.171875 -0.53125q0.953125 -0.53125 1.390625 -1.453125q0.34375 -0.71875 0.34375 -2.109375l0 -0.78125zm12.078125 -8.5l0 -2.4375l2.109375 0l0 2.4375l-2.109375 0zm0 14.75l0 -12.453125l2.109375 0l0 12.453125l-2.109375 0zm4.2070312 0l0 -1.71875l7.921875 -9.09375q-1.34375 0.078125 -2.375 0.078125l-5.078125 0l0 -1.71875l10.171875 0l0 1.40625l-6.734375 7.890625l-1.296875 1.4375q1.40625 -0.09375 2.65625 -0.09375l5.75 0l0 1.8125l-11.015625 0zm13.09375 0l0 -12.453125l1.890625 0l0 1.890625q0.734375 -1.328125 1.34375 -1.75q0.625 -0.421875 1.359375 -0.421875q1.0625 0 2.171875 0.6875l-0.734375 1.953125q-0.765625 -0.453125 -1.546875 -0.453125q-0.6875 0 -1.25 0.421875q-0.546875 0.40625 -0.78125 1.140625q-0.34375 1.125 -0.34375 2.46875l0 6.515625l-2.109375 0zm16.132812 -1.53125q-1.171875 0.984375 -2.265625 1.40625q-1.078125 0.40625 -2.3125 0.40625q-2.046875 0 -3.15625 -1.0q-1.09375 -1.0 -1.09375 -2.5625q0 -0.921875 0.40625 -1.671875q0.421875 -0.75 1.09375 -1.203125q0.671875 -0.46875 1.515625 -0.703125q0.625 -0.15625 1.875 -0.3125q2.5625 -0.3125 3.765625 -0.734375q0.015625 -0.421875 0.015625 -0.546875q0 -1.28125 -0.609375 -1.8125q-0.796875 -0.71875 -2.390625 -0.71875q-1.5 0 -2.203125 0.53125q-0.703125 0.515625 -1.046875 1.84375l-2.0625 -0.28125q0.28125 -1.328125 0.921875 -2.140625q0.640625 -0.8125 1.859375 -1.25q1.21875 -0.453125 2.828125 -0.453125q1.59375 0 2.59375 0.375q1.0 0.375 1.46875 0.953125q0.46875 0.5625 0.65625 1.4375q0.09375 0.53125 0.09375 1.9375l0 2.8125q0 2.9375 0.140625 3.71875q0.140625 0.78125 0.53125 1.5l-2.203125 0q-0.328125 -0.65625 -0.421875 -1.53125zm-0.171875 -4.71875q-1.15625 0.46875 -3.453125 0.796875q-1.296875 0.1875 -1.84375 0.421875q-0.53125 0.234375 -0.828125 0.6875q-0.28125 0.453125 -0.28125 1.0q0 0.84375 0.625 1.40625q0.640625 0.5625 1.875 0.5625q1.21875 0 2.171875 -0.53125q0.953125 -0.53125 1.390625 -1.453125q0.34375 -0.71875 0.34375 -2.109375l0 -0.78125zm13.472656 6.25l0 -1.578125q-1.1875 1.859375 -3.484375 1.859375q-1.484375 0 -2.734375 -0.8125q-1.25 -0.828125 -1.9375 -2.296875q-0.671875 -1.46875 -0.671875 -3.390625q0 -1.859375 0.609375 -3.375q0.625 -1.515625 1.859375 -2.328125q1.25 -0.8125 2.78125 -0.8125q1.125 0 2.0 0.484375q0.890625 0.46875 1.4375 1.234375l0 -6.171875l2.09375 0l0 17.1875l-1.953125 0zm-6.671875 -6.21875q0 2.390625 1.0 3.578125q1.015625 1.1875 2.390625 1.1875q1.390625 0 2.34375 -1.125q0.96875 -1.140625 0.96875 -3.453125q0 -2.5625 -0.984375 -3.75q-0.984375 -1.203125 -2.421875 -1.203125q-1.40625 0 -2.359375 1.15625q-0.9375 1.140625 -0.9375 3.609375zm20.097656 6.21875l0 -1.828125q-1.453125 2.109375 -3.9375 2.109375q-1.109375 0 -2.0625 -0.421875q-0.953125 -0.421875 -1.421875 -1.0625q-0.453125 -0.640625 -0.640625 -1.5625q-0.140625 -0.625 -0.140625 -1.96875l0 -7.71875l2.109375 0l0 6.90625q0 1.65625 0.140625 2.234375q0.1875 0.828125 0.828125 1.3125q0.65625 0.46875 1.609375 0.46875q0.9375 0 1.765625 -0.484375q0.84375 -0.5 1.1875 -1.328125q0.34375 -0.84375 0.34375 -2.4375l0 -6.671875l2.109375 0l0 12.453125l-1.890625 0z" fill-rule="nonzero"></path><path fill="#000000" d="m617.13257 228.79771l0 -17.1875l2.109375 0l0 9.796875l5.0 -5.0625l2.71875 0l-4.75 4.625l5.234375 7.828125l-2.59375 0l-4.125 -6.359375l-1.484375 1.421875l0 4.9375l-2.109375 0zm11.203125 -6.21875q0 -3.46875 1.921875 -5.125q1.609375 -1.390625 3.921875 -1.390625q2.5625 0 4.1875 1.6875q1.625 1.6875 1.625 4.640625q0 2.40625 -0.71875 3.78125q-0.71875 1.375 -2.09375 2.140625q-1.375 0.765625 -3.0 0.765625q-2.625 0 -4.234375 -1.671875q-1.609375 -1.6875 -1.609375 -4.828125zm2.171875 0q0 2.390625 1.03125 3.578125q1.046875 1.1875 2.640625 1.1875q1.5625 0 2.609375 -1.1875q1.046875 -1.203125 1.046875 -3.65625q0 -2.3125 -1.0625 -3.5q-1.046875 -1.1875 -2.59375 -1.1875q-1.59375 0 -2.640625 1.1875q-1.03125 1.1875 -1.03125 3.578125zm11.941406 6.21875l0 -12.453125l1.890625 0l0 1.890625q0.734375 -1.328125 1.34375 -1.75q0.625 -0.421875 1.359375 -0.421875q1.0625 0 2.171875 0.6875l-0.734375 1.953125q-0.765625 -0.453125 -1.546875 -0.453125q-0.6875 0 -1.25 0.421875q-0.546875 0.40625 -0.78125 1.140625q-0.34375 1.125 -0.34375 2.46875l0 6.515625l-2.109375 0zm8.0234375 -14.75l0 -2.4375l2.109375 0l0 2.4375l-2.109375 0zm0 14.75l0 -12.453125l2.109375 0l0 12.453125l-2.109375 0zm4.4726562 -3.71875l2.09375 -0.328125q0.171875 1.25 0.96875 1.921875q0.8125 0.671875 2.25 0.671875q1.453125 0 2.15625 -0.59375q0.703125 -0.59375 0.703125 -1.390625q0 -0.71875 -0.625 -1.125q-0.421875 -0.28125 -2.15625 -0.71875q-2.3125 -0.578125 -3.21875 -1.0q-0.890625 -0.4375 -1.359375 -1.1875q-0.453125 -0.765625 -0.453125 -1.671875q0 -0.828125 0.375 -1.53125q0.390625 -0.71875 1.046875 -1.1875q0.484375 -0.359375 1.328125 -0.609375q0.859375 -0.265625 1.828125 -0.265625q1.46875 0 2.578125 0.421875q1.109375 0.421875 1.625 1.15625q0.53125 0.71875 0.734375 1.921875l-2.0625 0.28125q-0.140625 -0.96875 -0.8125 -1.5q-0.671875 -0.546875 -1.90625 -0.546875q-1.453125 0 -2.078125 0.484375q-0.625 0.484375 -0.625 1.125q0 0.40625 0.265625 0.734375q0.25 0.34375 0.8125 0.5625q0.3125 0.125 1.859375 0.546875q2.234375 0.59375 3.109375 0.984375q0.890625 0.375 1.390625 1.109375q0.515625 0.71875 0.515625 1.796875q0 1.046875 -0.625 1.984375q-0.609375 0.9375 -1.765625 1.453125q-1.15625 0.5 -2.625 0.5q-2.421875 0 -3.703125 -1.0q-1.265625 -1.015625 -1.625 -3.0zm12.84375 3.71875l0 -12.453125l1.90625 0l0 1.78125q1.375 -2.0625 3.953125 -2.0625q1.125 0 2.0625 0.40625q0.953125 0.40625 1.421875 1.0625q0.46875 0.65625 0.65625 1.5625q0.125 0.578125 0.125 2.046875l0 7.65625l-2.109375 0l0 -7.578125q0 -1.28125 -0.25 -1.921875q-0.25 -0.640625 -0.875 -1.015625q-0.625 -0.390625 -1.46875 -0.390625q-1.34375 0 -2.328125 0.859375q-0.984375 0.859375 -0.984375 3.25l0 6.796875l-2.109375 0zm13.363281 -14.75l0 -2.4375l2.109375 0l0 2.4375l-2.109375 0zm0 14.75l0 -12.453125l2.109375 0l0 12.453125l-2.109375 0zm13.441406 -4.5625l2.078125 0.265625q-0.34375 2.15625 -1.75 3.375q-1.390625 1.203125 -3.4375 1.203125q-2.546875 0 -4.109375 -1.671875q-1.546875 -1.671875 -1.546875 -4.78125q0 -2.015625 0.671875 -3.53125q0.671875 -1.515625 2.03125 -2.265625q1.359375 -0.765625 2.96875 -0.765625q2.03125 0 3.3125 1.03125q1.296875 1.03125 1.65625 2.90625l-2.046875 0.328125q-0.296875 -1.265625 -1.046875 -1.890625q-0.734375 -0.640625 -1.796875 -0.640625q-1.59375 0 -2.59375 1.15625q-0.984375 1.140625 -0.984375 3.609375q0 2.5 0.953125 3.640625q0.96875 1.140625 2.515625 1.140625q1.234375 0 2.0625 -0.765625q0.84375 -0.765625 1.0625 -2.34375zm-3.5 -10.71875l1.296875 -2.0l2.390625 0l-2.640625 3.28125l-2.25 0l-2.53125 -3.28125l2.421875 0l1.3125 2.0zm7.390625 15.28125l0 -17.1875l2.109375 0l0 9.796875l5.0 -5.0625l2.71875 0l-4.75 4.625l5.234375 7.828125l-2.59375 0l-4.125 -6.359375l-1.484375 1.421875l0 4.9375l-2.109375 0zm11.203125 -6.21875q0 -3.46875 1.921875 -5.125q1.609375 -1.390625 3.921875 -1.390625q2.5625 0 4.1875 1.6875q1.625 1.6875 1.625 4.640625q0 2.40625 -0.71875 3.78125q-0.71875 1.375 -2.09375 2.140625q-1.375 0.765625 -3.0 0.765625q-2.625 0 -4.234375 -1.671875q-1.609375 -1.6875 -1.609375 -4.828125zm2.171875 0q0 2.390625 1.03125 3.578125q1.046875 1.1875 2.640625 1.1875q1.5625 0 2.609375 -1.1875q1.046875 -1.203125 1.046875 -3.65625q0 -2.3125 -1.0625 -3.5q-1.046875 -1.1875 -2.59375 -1.1875q-1.59375 0 -2.640625 1.1875q-1.03125 1.1875 -1.03125 3.578125zm11.582031 7.25l2.046875 0.3125q0.125 0.9375 0.71875 1.375q0.78125 0.59375 2.140625 0.59375q1.46875 0 2.265625 -0.59375q0.796875 -0.578125 1.078125 -1.640625q0.15625 -0.640625 0.140625 -2.703125q-1.375 1.625 -3.4375 1.625q-2.5625 0 -3.96875 -1.84375q-1.40625 -1.859375 -1.40625 -4.453125q0 -1.78125 0.640625 -3.28125q0.640625 -1.515625 1.859375 -2.328125q1.234375 -0.828125 2.890625 -0.828125q2.203125 0 3.625 1.78125l0 -1.5l1.953125 0l0 10.765625q0 2.90625 -0.59375 4.109375q-0.59375 1.21875 -1.875 1.921875q-1.28125 0.703125 -3.15625 0.703125q-2.234375 0 -3.609375 -1.0q-1.359375 -1.0 -1.3125 -3.015625zm1.734375 -7.484375q0 2.453125 0.96875 3.578125q0.984375 1.125 2.453125 1.125q1.453125 0 2.4375 -1.109375q0.984375 -1.125 0.984375 -3.515625q0 -2.28125 -1.015625 -3.4375q-1.015625 -1.171875 -2.453125 -1.171875q-1.40625 0 -2.390625 1.140625q-0.984375 1.140625 -0.984375 3.390625zm17.8125 2.734375l2.09375 -0.328125q0.171875 1.25 0.96875 1.921875q0.8125 0.671875 2.25 0.671875q1.453125 0 2.15625 -0.59375q0.703125 -0.59375 0.703125 -1.390625q0 -0.71875 -0.625 -1.125q-0.421875 -0.28125 -2.15625 -0.71875q-2.3125 -0.578125 -3.21875 -1.0q-0.890625 -0.4375 -1.359375 -1.1875q-0.453125 -0.765625 -0.453125 -1.671875q0 -0.828125 0.375 -1.53125q0.390625 -0.71875 1.046875 -1.1875q0.484375 -0.359375 1.328125 -0.609375q0.859375 -0.265625 1.828125 -0.265625q1.46875 0 2.578125 0.421875q1.109375 0.421875 1.625 1.15625q0.53125 0.71875 0.734375 1.921875l-2.0625 0.28125q-0.140625 -0.96875 -0.8125 -1.5q-0.671875 -0.546875 -1.90625 -0.546875q-1.453125 0 -2.078125 0.484375q-0.625 0.484375 -0.625 1.125q0 0.40625 0.265625 0.734375q0.25 0.34375 0.8125 0.5625q0.3125 0.125 1.859375 0.546875q2.234375 0.59375 3.109375 0.984375q0.890625 0.375 1.390625 1.109375q0.515625 0.71875 0.515625 1.796875q0 1.046875 -0.625 1.984375q-0.609375 0.9375 -1.765625 1.453125q-1.15625 0.5 -2.625 0.5q-2.421875 0 -3.703125 -1.0q-1.265625 -1.015625 -1.625 -3.0zm21.0 3.71875l0 -1.828125q-1.453125 2.109375 -3.9375 2.109375q-1.109375 0 -2.0625 -0.421875q-0.953125 -0.421875 -1.421875 -1.0625q-0.453125 -0.640625 -0.640625 -1.5625q-0.140625 -0.625 -0.140625 -1.96875l0 -7.71875l2.109375 0l0 6.90625q0 1.65625 0.140625 2.234375q0.1875 0.828125 0.828125 1.3125q0.65625 0.46875 1.609375 0.46875q0.9375 0 1.765625 -0.484375q0.84375 -0.5 1.1875 -1.328125q0.34375 -0.84375 0.34375 -2.4375l0 -6.671875l2.109375 0l0 12.453125l-1.890625 0zm13.316406 -4.5625l2.078125 0.265625q-0.34375 2.15625 -1.75 3.375q-1.390625 1.203125 -3.4375 1.203125q-2.546875 0 -4.109375 -1.671875q-1.546875 -1.671875 -1.546875 -4.78125q0 -2.015625 0.671875 -3.53125q0.671875 -1.515625 2.03125 -2.265625q1.359375 -0.765625 2.96875 -0.765625q2.03125 0 3.3125 1.03125q1.296875 1.03125 1.65625 2.90625l-2.046875 0.328125q-0.296875 -1.265625 -1.046875 -1.890625q-0.734375 -0.640625 -1.796875 -0.640625q-1.59375 0 -2.59375 1.15625q-0.984375 1.140625 -0.984375 3.609375q0 2.5 0.953125 3.640625q0.96875 1.140625 2.515625 1.140625q1.234375 0 2.0625 -0.765625q0.84375 -0.765625 1.0625 -2.34375zm-3.5 -10.71875l1.296875 -2.0l2.390625 0l-2.640625 3.28125l-2.25 0l-2.53125 -3.28125l2.421875 0l1.3125 2.0zm15.90625 11.265625l2.171875 0.28125q-0.515625 1.90625 -1.90625 2.96875q-1.390625 1.046875 -3.5625 1.046875q-2.734375 0 -4.34375 -1.671875q-1.59375 -1.6875 -1.59375 -4.734375q0 -3.140625 1.609375 -4.875q1.625 -1.734375 4.203125 -1.734375q2.5 0 4.078125 1.703125q1.59375 1.703125 1.59375 4.78125q0 0.1875 -0.015625 0.5625l-9.28125 0q0.109375 2.046875 1.15625 3.140625q1.046875 1.09375 2.609375 1.09375q1.15625 0 1.96875 -0.609375q0.828125 -0.609375 1.3125 -1.953125zm-6.9375 -3.40625l6.953125 0q-0.140625 -1.5625 -0.796875 -2.359375q-1.0 -1.21875 -2.609375 -1.21875q-1.453125 0 -2.453125 0.984375q-0.984375 0.96875 -1.09375 2.59375zm11.707031 7.421875l0 -17.1875l2.109375 0l0 17.1875l-2.109375 0zm5.3789062 -14.734375l0 -2.453125l2.109375 0l0 2.453125l-2.109375 0zm-2.6875 19.5625l0.40625 -1.796875q0.625 0.171875 1.0 0.171875q0.640625 0 0.953125 -0.4375q0.328125 -0.421875 0.328125 -2.125l0 -13.09375l2.109375 0l0 13.140625q0 2.296875 -0.609375 3.1875q-0.75 1.171875 -2.53125 1.171875q-0.859375 0 -1.65625 -0.21875zm16.144531 -6.359375q-1.171875 0.984375 -2.265625 1.40625q-1.078125 0.40625 -2.3125 0.40625q-2.046875 0 -3.15625 -1.0q-1.09375 -1.0 -1.09375 -2.5625q0 -0.921875 0.40625 -1.671875q0.421875 -0.75 1.09375 -1.203125q0.671875 -0.46875 1.515625 -0.703125q0.625 -0.15625 1.875 -0.3125q2.5625 -0.3125 3.765625 -0.734375q0.015625 -0.421875 0.015625 -0.546875q0 -1.28125 -0.609375 -1.8125q-0.796875 -0.71875 -2.390625 -0.71875q-1.5 0 -2.203125 0.53125q-0.703125 0.515625 -1.046875 1.84375l-2.0625 -0.28125q0.28125 -1.328125 0.921875 -2.140625q0.640625 -0.8125 1.859375 -1.25q1.21875 -0.453125 2.828125 -0.453125q1.59375 0 2.59375 0.375q1.0 0.375 1.46875 0.953125q0.46875 0.5625 0.65625 1.4375q0.09375 0.53125 0.09375 1.9375l0 2.8125q0 2.9375 0.140625 3.71875q0.140625 0.78125 0.53125 1.5l-2.203125 0q-0.328125 -0.65625 -0.421875 -1.53125zm-0.171875 -4.71875q-1.15625 0.46875 -3.453125 0.796875q-1.296875 0.1875 -1.84375 0.421875q-0.53125 0.234375 -0.828125 0.6875q-0.28125 0.453125 -0.28125 1.0q0 0.84375 0.625 1.40625q0.640625 0.5625 1.875 0.5625q1.21875 0 2.171875 -0.53125q0.953125 -0.53125 1.390625 -1.453125q0.34375 -0.71875 0.34375 -2.109375l0 -0.78125z" fill-rule="nonzero"></path><path fill="#000000" fill-opacity="0.0" d="m347.36514 440.8096l251.40158 0l0 188.56693l-251.40158 0z" fill-rule="evenodd"></path><path fill="#000000" d="m412.76123 480.5296l-8.1875 -22.90625l5.015625 0l5.796875 16.953125l5.609375 -16.953125l4.90625 0l-8.203125 22.90625l-4.9375 0zm15.46875 -18.84375l0 -4.0625l4.390625 0l0 4.0625l-4.390625 0zm0 18.84375l0 -16.59375l4.390625 0l0 16.59375l-4.390625 0zm18.5 -5.28125l4.375 0.734375q-0.84375 2.40625 -2.671875 3.671875q-1.8125 1.25 -4.546875 1.25q-4.328125 0 -6.40625 -2.828125q-1.640625 -2.265625 -1.640625 -5.71875q0 -4.125 2.15625 -6.453125q2.15625 -2.34375 5.453125 -2.34375q3.703125 0 5.84375 2.453125q2.140625 2.4375 2.046875 7.484375l-11.0 0q0.046875 1.953125 1.0625 3.046875q1.015625 1.078125 2.53125 1.078125q1.03125 0 1.734375 -0.5625q0.703125 -0.5625 1.0625 -1.8125zm0.25 -4.4375q-0.046875 -1.90625 -0.984375 -2.890625q-0.9375 -1.0 -2.28125 -1.0q-1.4375 0 -2.375 1.046875q-0.9375 1.046875 -0.921875 2.84375l6.5625 0zm11.03125 9.71875l-5.25 -16.59375l4.265625 0l3.109375 10.875l2.859375 -10.875l4.234375 0l2.765625 10.875l3.171875 -10.875l4.328125 0l-5.328125 16.59375l-4.21875 0l-2.859375 -10.671875l-2.8125 10.671875l-4.265625 0zm20.25 -4.734375l4.40625 -0.671875q0.28125 1.28125 1.140625 1.953125q0.859375 0.65625 2.40625 0.65625q1.703125 0 2.5625 -0.625q0.578125 -0.4375 0.578125 -1.171875q0 -0.5 -0.3125 -0.828125q-0.328125 -0.3125 -1.46875 -0.578125q-5.3125 -1.171875 -6.734375 -2.140625q-1.96875 -1.34375 -1.96875 -3.734375q0 -2.15625 1.703125 -3.625q1.703125 -1.46875 5.28125 -1.46875q3.40625 0 5.0625 1.109375q1.65625 1.109375 2.28125 3.28125l-4.140625 0.765625q-0.265625 -0.96875 -1.015625 -1.484375q-0.734375 -0.515625 -2.109375 -0.515625q-1.734375 0 -2.484375 0.484375q-0.5 0.34375 -0.5 0.890625q0 0.46875 0.4375 0.796875q0.59375 0.4375 4.09375 1.234375q3.515625 0.796875 4.90625 1.953125q1.375 1.171875 1.375 3.265625q0 2.28125 -1.90625 3.921875q-1.90625 1.640625 -5.640625 1.640625q-3.390625 0 -5.375 -1.375q-1.96875 -1.375 -2.578125 -3.734375zm19.34375 4.734375l0 -4.390625l4.390625 0l0 4.390625l-4.390625 0zm8.765625 -16.59375l4.09375 0l0 2.4375q0.796875 -1.25 2.15625 -2.03125q1.359375 -0.78125 3.015625 -0.78125q2.890625 0 4.90625 2.265625q2.015625 2.265625 2.015625 6.3125q0 4.15625 -2.03125 6.46875q-2.03125 2.296875 -4.921875 2.296875q-1.375 0 -2.5 -0.546875q-1.109375 -0.546875 -2.34375 -1.875l0 8.359375l-4.390625 0l0 -22.90625zm4.34375 8.015625q0 2.796875 1.109375 4.140625q1.109375 1.328125 2.703125 1.328125q1.53125 0 2.546875 -1.21875q1.015625 -1.234375 1.015625 -4.03125q0 -2.609375 -1.046875 -3.875q-1.046875 -1.265625 -2.59375 -1.265625q-1.609375 0 -2.671875 1.25q-1.0625 1.234375 -1.0625 3.671875zm13.25 -8.015625l4.671875 0l3.96875 11.78125l3.875 -11.78125l4.546875 0l-5.859375 15.96875l-1.046875 2.890625q-0.578125 1.453125 -1.109375 2.21875q-0.515625 0.765625 -1.203125 1.234375q-0.671875 0.484375 -1.671875 0.75q-0.984375 0.265625 -2.234375 0.265625q-1.265625 0 -2.484375 -0.265625l-0.390625 -3.4375q1.03125 0.203125 1.859375 0.203125q1.53125 0 2.265625 -0.90625q0.734375 -0.890625 1.125 -2.28125l-6.3125 -16.640625z" fill-rule="nonzero"></path><path fill="#000000" d="m385.5171 540.4746q0 -4.265625 2.296875 -6.6875q2.296875 -2.421875 5.9375 -2.421875q2.375 0 4.28125 1.140625q1.921875 1.125 2.921875 3.171875q1.0 2.03125 1.0 4.609375q0 2.609375 -1.0625 4.671875q-1.046875 2.0625 -2.984375 3.125q-1.9375 1.0625 -4.171875 1.0625q-2.421875 0 -4.34375 -1.171875q-1.90625 -1.171875 -2.890625 -3.203125q-0.984375 -2.03125 -0.984375 -4.296875zm2.34375 0.046875q0 3.09375 1.671875 4.890625q1.671875 1.78125 4.1875 1.78125q2.578125 0 4.234375 -1.796875q1.65625 -1.8125 1.65625 -5.125q0 -2.09375 -0.71875 -3.65625q-0.703125 -1.578125 -2.078125 -2.4375q-1.359375 -0.859375 -3.046875 -0.859375q-2.421875 0 -4.171875 1.65625q-1.734375 1.65625 -1.734375 5.546875zm18.699219 8.328125l-1.953125 0l0 -17.1875l2.109375 0l0 6.140625q1.328125 -1.6875 3.40625 -1.6875q1.140625 0 2.171875 0.46875q1.03125 0.46875 1.6875 1.3125q0.65625 0.828125 1.03125 2.015625q0.375 1.171875 0.375 2.53125q0 3.1875 -1.578125 4.9375q-1.578125 1.75 -3.796875 1.75q-2.203125 0 -3.453125 -1.84375l0 1.5625zm-0.03125 -6.3125q0 2.234375 0.609375 3.234375q1.0 1.625 2.703125 1.625q1.375 0 2.375 -1.203125q1.015625 -1.203125 1.015625 -3.578125q0 -2.4375 -0.96875 -3.59375q-0.953125 -1.171875 -2.328125 -1.171875q-1.390625 0 -2.40625 1.203125q-1.0 1.203125 -1.0 3.484375zm11.410156 6.3125l0 -12.453125l1.890625 0l0 1.890625q0.734375 -1.328125 1.34375 -1.75q0.625 -0.421875 1.359375 -0.421875q1.0625 0 2.171875 0.6875l-0.734375 1.953125q-0.765625 -0.453125 -1.546875 -0.453125q-0.6875 0 -1.25 0.421875q-0.546875 0.40625 -0.78125 1.140625q-0.34375 1.125 -0.34375 2.46875l0 6.515625l-2.109375 0zm16.132812 -1.53125q-1.171875 0.984375 -2.265625 1.40625q-1.078125 0.40625 -2.3125 0.40625q-2.046875 0 -3.15625 -1.0q-1.09375 -1.0 -1.09375 -2.5625q0 -0.921875 0.40625 -1.671875q0.421875 -0.75 1.09375 -1.203125q0.671875 -0.46875 1.515625 -0.703125q0.625 -0.15625 1.875 -0.3125q2.5625 -0.3125 3.765625 -0.734375q0.015625 -0.421875 0.015625 -0.546875q0 -1.28125 -0.609375 -1.8125q-0.796875 -0.71875 -2.390625 -0.71875q-1.5 0 -2.203125 0.53125q-0.703125 0.515625 -1.046875 1.84375l-2.0625 -0.28125q0.28125 -1.328125 0.921875 -2.140625q0.640625 -0.8125 1.859375 -1.25q1.21875 -0.453125 2.828125 -0.453125q1.59375 0 2.59375 0.375q1.0 0.375 1.46875 0.953125q0.46875 0.5625 0.65625 1.4375q0.09375 0.53125 0.09375 1.9375l0 2.8125q0 2.9375 0.140625 3.71875q0.140625 0.78125 0.53125 1.5l-2.203125 0q-0.328125 -0.65625 -0.421875 -1.53125zm-0.171875 -4.71875q-1.15625 0.46875 -3.453125 0.796875q-1.296875 0.1875 -1.84375 0.421875q-0.53125 0.234375 -0.828125 0.6875q-0.28125 0.453125 -0.28125 1.0q0 0.84375 0.625 1.40625q0.640625 0.5625 1.875 0.5625q1.21875 0 2.171875 -0.53125q0.953125 -0.53125 1.390625 -1.453125q0.34375 -0.71875 0.34375 -2.109375l0 -0.78125zm13.332031 -8.03125l-4.046875 0l0 -1.546875l4.046875 0l0 -1.359375l2.09375 0l0 1.359375l1.703125 0l0 1.546875l-1.703125 0l0 14.28125l-1.953125 0l0 -1.578125q-1.1875 1.859375 -3.484375 1.859375q-1.484375 0 -2.734375 -0.8125q-1.25 -0.828125 -1.9375 -2.296875q-0.671875 -1.46875 -0.671875 -3.390625q0 -1.859375 0.609375 -3.375q0.625 -1.515625 1.859375 -2.328125q1.25 -0.8125 2.78125 -0.8125q1.125 0 2.0 0.484375q0.890625 0.46875 1.4375 1.234375l0 -3.265625zm-6.53125 8.0625q0 2.390625 1.0 3.578125q1.015625 1.1875 2.390625 1.1875q1.390625 0 2.34375 -1.125q0.96875 -1.140625 0.96875 -3.453125q0 -2.5625 -0.984375 -3.75q-0.984375 -1.203125 -2.421875 -1.203125q-1.40625 0 -2.359375 1.15625q-0.9375 1.140625 -0.9375 3.609375zm20.097656 6.21875l0 -1.828125q-1.453125 2.109375 -3.9375 2.109375q-1.109375 0 -2.0625 -0.421875q-0.953125 -0.421875 -1.421875 -1.0625q-0.453125 -0.640625 -0.640625 -1.5625q-0.140625 -0.625 -0.140625 -1.96875l0 -7.71875l2.109375 0l0 6.90625q0 1.65625 0.140625 2.234375q0.1875 0.828125 0.828125 1.3125q0.65625 0.46875 1.609375 0.46875q0.9375 0 1.765625 -0.484375q0.84375 -0.5 1.1875 -1.328125q0.34375 -0.84375 0.34375 -2.4375l0 -6.671875l2.109375 0l0 12.453125l-1.890625 0zm5.1914062 -14.734375l0 -2.453125l2.109375 0l0 2.453125l-2.109375 0zm-2.6875 19.5625l0.40625 -1.796875q0.625 0.171875 1.0 0.171875q0.640625 0 0.953125 -0.4375q0.328125 -0.421875 0.328125 -2.125l0 -13.09375l2.109375 0l0 13.140625q0 2.296875 -0.609375 3.1875q-0.75 1.171875 -2.53125 1.171875q-0.859375 0 -1.65625 -0.21875zm16.550781 -8.84375l2.171875 0.28125q-0.515625 1.90625 -1.90625 2.96875q-1.390625 1.046875 -3.5625 1.046875q-2.734375 0 -4.34375 -1.671875q-1.59375 -1.6875 -1.59375 -4.734375q0 -3.140625 1.609375 -4.875q1.625 -1.734375 4.203125 -1.734375q2.5 0 4.078125 1.703125q1.59375 1.703125 1.59375 4.78125q0 0.1875 -0.015625 0.5625l-9.28125 0q0.109375 2.046875 1.15625 3.140625q1.046875 1.09375 2.609375 1.09375q1.15625 0 1.96875 -0.609375q0.828125 -0.609375 1.3125 -1.953125zm-6.9375 -3.40625l6.953125 0q-0.140625 -1.5625 -0.796875 -2.359375q-1.0 -1.21875 -2.609375 -1.21875q-1.453125 0 -2.453125 0.984375q-0.984375 0.96875 -1.09375 2.59375zm18.703125 7.421875l0 -17.1875l6.46875 0q1.71875 0 2.625 0.171875q1.265625 0.203125 2.109375 0.796875q0.859375 0.59375 1.375 1.671875q0.53125 1.0625 0.53125 2.328125q0 2.203125 -1.40625 3.71875q-1.390625 1.515625 -5.03125 1.515625l-4.40625 0l0 6.984375l-2.265625 0zm2.265625 -9.015625l4.4375 0q2.203125 0 3.125 -0.8125q0.9375 -0.828125 0.9375 -2.3125q0 -1.078125 -0.546875 -1.84375q-0.546875 -0.765625 -1.4375 -1.015625q-0.578125 -0.15625 -2.125 -0.15625l-4.390625 0l0 6.140625zm13.0390625 0.640625q0 -4.265625 2.296875 -6.6875q2.296875 -2.421875 5.9375 -2.421875q2.375 0 4.28125 1.140625q1.921875 1.125 2.921875 3.171875q1.0 2.03125 1.0 4.609375q0 2.609375 -1.0625 4.671875q-1.046875 2.0625 -2.984375 3.125q-1.9375 1.0625 -4.171875 1.0625q-2.421875 0 -4.34375 -1.171875q-1.90625 -1.171875 -2.890625 -3.203125q-0.984375 -2.03125 -0.984375 -4.296875zm2.34375 0.046875q0 3.09375 1.671875 4.890625q1.671875 1.78125 4.1875 1.78125q2.578125 0 4.234375 -1.796875q1.65625 -1.8125 1.65625 -5.125q0 -2.09375 -0.71875 -3.65625q-0.703125 -1.578125 -2.078125 -2.4375q-1.359375 -0.859375 -3.046875 -0.859375q-2.421875 0 -4.171875 1.65625q-1.734375 1.65625 -1.734375 5.546875zm16.246094 2.8125l2.140625 -0.1875q0.15625 1.28125 0.703125 2.109375q0.5625 0.828125 1.734375 1.34375q1.171875 0.5 2.640625 0.5q1.296875 0 2.296875 -0.375q1.0 -0.390625 1.484375 -1.0625q0.484375 -0.6875 0.484375 -1.484375q0 -0.796875 -0.46875 -1.40625q-0.46875 -0.609375 -1.546875 -1.015625q-0.6875 -0.265625 -3.0625 -0.828125q-2.359375 -0.578125 -3.3125 -1.078125q-1.234375 -0.640625 -1.84375 -1.59375q-0.59375 -0.96875 -0.59375 -2.140625q0 -1.3125 0.734375 -2.4375q0.75 -1.125 2.15625 -1.703125q1.421875 -0.59375 3.15625 -0.59375q1.90625 0 3.359375 0.609375q1.46875 0.609375 2.25 1.8125q0.796875 1.1875 0.84375 2.703125l-2.171875 0.171875q-0.171875 -1.640625 -1.1875 -2.46875q-1.015625 -0.828125 -3.0 -0.828125q-2.0625 0 -3.015625 0.765625q-0.9375 0.75 -0.9375 1.8125q0 0.921875 0.671875 1.515625q0.65625 0.609375 3.421875 1.234375q2.78125 0.625 3.8125 1.09375q1.5 0.6875 2.203125 1.75q0.71875 1.0625 0.71875 2.4375q0 1.375 -0.78125 2.59375q-0.78125 1.203125 -2.25 1.890625q-1.46875 0.671875 -3.3125 0.671875q-2.328125 0 -3.90625 -0.671875q-1.578125 -0.6875 -2.484375 -2.046875q-0.890625 -1.375 -0.9375 -3.09375zm21.148438 5.515625l0 -15.15625l-5.65625 0l0 -2.03125l13.625 0l0 2.03125l-5.6875 0l0 15.15625l-2.28125 0zm10.582031 0l0 -2.40625l2.390625 0l0 2.40625q0 1.328125 -0.46875 2.140625q-0.46875 0.8125 -1.484375 1.265625l-0.578125 -0.90625q0.65625 -0.296875 0.96875 -0.875q0.328125 -0.5625 0.359375 -1.625l-1.1875 0z" fill-rule="nonzero"></path><path fill="#000000" d="m380.2827 571.11523l0 -2.015625l7.28125 -0.015625l0 6.375q-1.671875 1.328125 -3.453125 2.015625q-1.78125 0.671875 -3.65625 0.671875q-2.53125 0 -4.609375 -1.078125q-2.0625 -1.09375 -3.125 -3.140625q-1.046875 -2.0625 -1.046875 -4.59375q0 -2.5 1.046875 -4.671875q1.046875 -2.171875 3.015625 -3.21875q1.96875 -1.0625 4.53125 -1.0625q1.875 0 3.375 0.609375q1.5 0.59375 2.359375 1.671875q0.859375 1.078125 1.296875 2.8125l-2.046875 0.5625q-0.390625 -1.3125 -0.96875 -2.0625q-0.5625 -0.75 -1.640625 -1.203125q-1.0625 -0.453125 -2.359375 -0.453125q-1.5625 0 -2.703125 0.484375q-1.125 0.46875 -1.828125 1.25q-0.6875 0.765625 -1.078125 1.6875q-0.65625 1.59375 -0.65625 3.453125q0 2.296875 0.78125 3.84375q0.796875 1.546875 2.3125 2.296875q1.515625 0.75 3.203125 0.75q1.484375 0 2.890625 -0.5625q1.40625 -0.5625 2.125 -1.21875l0 -3.1875l-5.046875 0zm10.683594 6.734375l0 -17.1875l12.421875 0l0 2.03125l-10.15625 0l0 5.265625l9.5 0l0 2.015625l-9.5 0l0 5.84375l10.546875 0l0 2.03125l-12.8125 0zm20.320312 0l0 -15.15625l-5.65625 0l0 -2.03125l13.625 0l0 2.03125l-5.6875 0l0 15.15625l-2.28125 0zm10.582031 0l0 -2.40625l2.390625 0l0 2.40625q0 1.328125 -0.46875 2.140625q-0.46875 0.8125 -1.484375 1.265625l-0.578125 -0.90625q0.65625 -0.296875 0.96875 -0.875q0.328125 -0.5625 0.359375 -1.625l-1.1875 0zm13.0546875 0l0 -17.1875l6.46875 0q1.71875 0 2.625 0.171875q1.265625 0.203125 2.109375 0.796875q0.859375 0.59375 1.375 1.671875q0.53125 1.0625 0.53125 2.328125q0 2.203125 -1.40625 3.71875q-1.390625 1.515625 -5.03125 1.515625l-4.40625 0l0 6.984375l-2.265625 0zm2.265625 -9.015625l4.4375 0q2.203125 0 3.125 -0.8125q0.9375 -0.828125 0.9375 -2.3125q0 -1.078125 -0.546875 -1.84375q-0.546875 -0.765625 -1.4375 -1.015625q-0.578125 -0.15625 -2.125 -0.15625l-4.390625 0l0 6.140625zm25.007812 -8.171875l2.28125 0l0 9.9375q0 2.578125 -0.59375 4.109375q-0.578125 1.515625 -2.109375 2.484375q-1.53125 0.953125 -4.015625 0.953125q-2.421875 0 -3.953125 -0.828125q-1.53125 -0.84375 -2.1875 -2.421875q-0.65625 -1.578125 -0.65625 -4.296875l0 -9.9375l2.265625 0l0 9.921875q0 2.234375 0.421875 3.296875q0.421875 1.0625 1.421875 1.640625q1.015625 0.5625 2.484375 0.5625q2.515625 0 3.578125 -1.125q1.0625 -1.140625 1.0625 -4.375l0 -9.921875zm10.425781 17.1875l0 -15.15625l-5.65625 0l0 -2.03125l13.625 0l0 2.03125l-5.6875 0l0 15.15625l-2.28125 0zm10.582031 0l0 -2.40625l2.390625 0l0 2.40625q0 1.328125 -0.46875 2.140625q-0.46875 0.8125 -1.484375 1.265625l-0.578125 -0.90625q0.65625 -0.296875 0.96875 -0.875q0.328125 -0.5625 0.359375 -1.625l-1.1875 0zm13.0546875 0l0 -17.1875l6.46875 0q1.71875 0 2.625 0.171875q1.265625 0.203125 2.109375 0.796875q0.859375 0.59375 1.375 1.671875q0.53125 1.0625 0.53125 2.328125q0 2.203125 -1.40625 3.71875q-1.390625 1.515625 -5.03125 1.515625l-4.40625 0l0 6.984375l-2.265625 0zm2.265625 -9.015625l4.4375 0q2.203125 0 3.125 -0.8125q0.9375 -0.828125 0.9375 -2.3125q0 -1.078125 -0.546875 -1.84375q-0.546875 -0.765625 -1.4375 -1.015625q-0.578125 -0.15625 -2.125 -0.15625l-4.390625 0l0 6.140625zm11.8515625 9.015625l6.59375 -17.1875l2.453125 0l7.03125 17.1875l-2.59375 0l-2.0 -5.203125l-7.1875 0l-1.890625 5.203125l-2.40625 0zm4.953125 -7.0625l5.828125 0l-1.796875 -4.75q-0.8125 -2.171875 -1.21875 -3.5625q-0.328125 1.65625 -0.921875 3.28125l-1.890625 5.03125zm17.304688 7.0625l0 -15.15625l-5.65625 0l0 -2.03125l13.625 0l0 2.03125l-5.6875 0l0 15.15625l-2.28125 0zm22.550781 -6.03125l2.28125 0.578125q-0.71875 2.796875 -2.578125 4.28125q-1.859375 1.46875 -4.546875 1.46875q-2.765625 0 -4.515625 -1.125q-1.734375 -1.140625 -2.640625 -3.28125q-0.90625 -2.15625 -0.90625 -4.609375q0 -2.6875 1.015625 -4.6875q1.03125 -2.0 2.921875 -3.03125q1.890625 -1.03125 4.171875 -1.03125q2.578125 0 4.328125 1.3125q1.765625 1.3125 2.453125 3.6875l-2.234375 0.53125q-0.609375 -1.875 -1.75 -2.734375q-1.125 -0.859375 -2.84375 -0.859375q-1.984375 0 -3.3125 0.953125q-1.328125 0.953125 -1.875 2.546875q-0.53125 1.59375 -0.53125 3.296875q0 2.1875 0.625 3.828125q0.640625 1.640625 1.984375 2.453125q1.359375 0.796875 2.921875 0.796875q1.921875 0 3.234375 -1.09375q1.328125 -1.109375 1.796875 -3.28125zm5.1445312 6.03125l0 -17.1875l2.28125 0l0 7.0625l8.921875 0l0 -7.0625l2.28125 0l0 17.1875l-2.28125 0l0 -8.09375l-8.921875 0l0 8.09375l-2.28125 0z" fill-rule="nonzero"></path><path fill="#000000" d="m434.60303 606.8496l0 -12.453125l1.890625 0l0 1.890625q0.734375 -1.328125 1.34375 -1.75q0.625 -0.421875 1.359375 -0.421875q1.0625 0 2.171875 0.6875l-0.734375 1.953125q-0.765625 -0.453125 -1.546875 -0.453125q-0.6875 0 -1.25 0.421875q-0.546875 0.40625 -0.78125 1.140625q-0.34375 1.125 -0.34375 2.46875l0 6.515625l-2.109375 0zm16.539062 -4.015625l2.171875 0.28125q-0.515625 1.90625 -1.90625 2.96875q-1.390625 1.046875 -3.5625 1.046875q-2.734375 0 -4.34375 -1.671875q-1.59375 -1.6875 -1.59375 -4.734375q0 -3.140625 1.609375 -4.875q1.625 -1.734375 4.203125 -1.734375q2.5 0 4.078125 1.703125q1.59375 1.703125 1.59375 4.78125q0 0.1875 -0.015625 0.5625l-9.28125 0q0.109375 2.046875 1.15625 3.140625q1.046875 1.09375 2.609375 1.09375q1.15625 0 1.96875 -0.609375q0.828125 -0.609375 1.3125 -1.953125zm-6.9375 -3.40625l6.953125 0q-0.140625 -1.5625 -0.796875 -2.359375q-1.0 -1.21875 -2.609375 -1.21875q-1.453125 0 -2.453125 0.984375q-0.984375 0.96875 -1.09375 2.59375zm19.691406 12.1875l0 -6.09375q-0.484375 0.6875 -1.375 1.15625q-0.890625 0.453125 -1.875 0.453125q-2.21875 0 -3.828125 -1.765625q-1.59375 -1.78125 -1.59375 -4.859375q0 -1.875 0.640625 -3.359375q0.65625 -1.484375 1.890625 -2.25q1.25 -0.78125 2.71875 -0.78125q2.3125 0 3.640625 1.953125l0 -1.671875l1.890625 0l0 17.21875l-2.109375 0zm-6.5 -11.03125q0 2.40625 1.0 3.609375q1.015625 1.203125 2.421875 1.203125q1.34375 0 2.3125 -1.140625q0.984375 -1.140625 0.984375 -3.484375q0 -2.484375 -1.03125 -3.734375q-1.03125 -1.25 -2.40625 -1.25q-1.375 0 -2.328125 1.171875q-0.953125 1.15625 -0.953125 3.625zm20.066406 6.265625l0 -1.828125q-1.453125 2.109375 -3.9375 2.109375q-1.109375 0 -2.0625 -0.421875q-0.953125 -0.421875 -1.421875 -1.0625q-0.453125 -0.640625 -0.640625 -1.5625q-0.140625 -0.625 -0.140625 -1.96875l0 -7.71875l2.109375 0l0 6.90625q0 1.65625 0.140625 2.234375q0.1875 0.828125 0.828125 1.3125q0.65625 0.46875 1.609375 0.46875q0.9375 0 1.765625 -0.484375q0.84375 -0.5 1.1875 -1.328125q0.34375 -0.84375 0.34375 -2.4375l0 -6.671875l2.109375 0l0 12.453125l-1.890625 0zm13.722656 -4.015625l2.171875 0.28125q-0.515625 1.90625 -1.90625 2.96875q-1.390625 1.046875 -3.5625 1.046875q-2.734375 0 -4.34375 -1.671875q-1.59375 -1.6875 -1.59375 -4.734375q0 -3.140625 1.609375 -4.875q1.625 -1.734375 4.203125 -1.734375q2.5 0 4.078125 1.703125q1.59375 1.703125 1.59375 4.78125q0 0.1875 -0.015625 0.5625l-9.28125 0q0.109375 2.046875 1.15625 3.140625q1.046875 1.09375 2.609375 1.09375q1.15625 0 1.96875 -0.609375q0.828125 -0.609375 1.3125 -1.953125zm-6.9375 -3.40625l6.953125 0q-0.140625 -1.5625 -0.796875 -2.359375q-1.0 -1.21875 -2.609375 -1.21875q-1.453125 0 -2.453125 0.984375q-0.984375 0.96875 -1.09375 2.59375zm10.910156 3.703125l2.09375 -0.328125q0.171875 1.25 0.96875 1.921875q0.8125 0.671875 2.25 0.671875q1.453125 0 2.15625 -0.59375q0.703125 -0.59375 0.703125 -1.390625q0 -0.71875 -0.625 -1.125q-0.421875 -0.28125 -2.15625 -0.71875q-2.3125 -0.578125 -3.21875 -1.0q-0.890625 -0.4375 -1.359375 -1.1875q-0.453125 -0.765625 -0.453125 -1.671875q0 -0.828125 0.375 -1.53125q0.390625 -0.71875 1.046875 -1.1875q0.484375 -0.359375 1.328125 -0.609375q0.859375 -0.265625 1.828125 -0.265625q1.46875 0 2.578125 0.421875q1.109375 0.421875 1.625 1.15625q0.53125 0.71875 0.734375 1.921875l-2.0625 0.28125q-0.140625 -0.96875 -0.8125 -1.5q-0.671875 -0.546875 -1.90625 -0.546875q-1.453125 0 -2.078125 0.484375q-0.625 0.484375 -0.625 1.125q0 0.40625 0.265625 0.734375q0.25 0.34375 0.8125 0.5625q0.3125 0.125 1.859375 0.546875q2.234375 0.59375 3.109375 0.984375q0.890625 0.375 1.390625 1.109375q0.515625 0.71875 0.515625 1.796875q0 1.046875 -0.625 1.984375q-0.609375 0.9375 -1.765625 1.453125q-1.15625 0.5 -2.625 0.5q-2.421875 0 -3.703125 -1.0q-1.265625 -1.015625 -1.625 -3.0zm17.453125 1.828125l0.3125 1.859375q-0.890625 0.203125 -1.59375 0.203125q-1.15625 0 -1.796875 -0.359375q-0.625 -0.375 -0.890625 -0.96875q-0.25 -0.59375 -0.25 -2.484375l0 -7.171875l-1.546875 0l0 -1.640625l1.546875 0l0 -3.078125l2.09375 -1.265625l0 4.34375l2.125 0l0 1.640625l-2.125 0l0 7.28125q0 0.90625 0.109375 1.171875q0.125 0.25 0.375 0.40625q0.25 0.140625 0.71875 0.140625q0.34375 0 0.921875 -0.078125z" fill-rule="nonzero"></path><path fill="#000000" d="m434.61865 635.8496l0 -12.453125l1.890625 0l0 1.75q0.59375 -0.90625 1.5625 -1.46875q0.96875 -0.5625 2.21875 -0.5625q1.375 0 2.25 0.578125q0.890625 0.578125 1.265625 1.609375q1.46875 -2.1875 3.84375 -2.1875q1.84375 0 2.84375 1.03125q1.0 1.03125 1.0 3.15625l0 8.546875l-2.109375 0l0 -7.84375q0 -1.265625 -0.203125 -1.8125q-0.203125 -0.5625 -0.75 -0.90625q-0.53125 -0.34375 -1.25 -0.34375q-1.3125 0 -2.1875 0.875q-0.859375 0.875 -0.859375 2.796875l0 7.234375l-2.109375 0l0 -8.09375q0 -1.40625 -0.515625 -2.109375q-0.515625 -0.703125 -1.6875 -0.703125q-0.890625 0 -1.65625 0.46875q-0.75 0.46875 -1.09375 1.375q-0.34375 0.90625 -0.34375 2.609375l0 6.453125l-2.109375 0zm28.523438 -4.015625l2.171875 0.28125q-0.515625 1.90625 -1.90625 2.96875q-1.390625 1.046875 -3.5625 1.046875q-2.734375 0 -4.34375 -1.671875q-1.59375 -1.6875 -1.59375 -4.734375q0 -3.140625 1.609375 -4.875q1.625 -1.734375 4.203125 -1.734375q2.5 0 4.078125 1.703125q1.59375 1.703125 1.59375 4.78125q0 0.1875 -0.015625 0.5625l-9.28125 0q0.109375 2.046875 1.15625 3.140625q1.046875 1.09375 2.609375 1.09375q1.15625 0 1.96875 -0.609375q0.828125 -0.609375 1.3125 -1.953125zm-6.9375 -3.40625l6.953125 0q-0.140625 -1.5625 -0.796875 -2.359375q-1.0 -1.21875 -2.609375 -1.21875q-1.453125 0 -2.453125 0.984375q-0.984375 0.96875 -1.09375 2.59375zm16.363281 5.53125l0.3125 1.859375q-0.890625 0.203125 -1.59375 0.203125q-1.15625 0 -1.796875 -0.359375q-0.625 -0.375 -0.890625 -0.96875q-0.25 -0.59375 -0.25 -2.484375l0 -7.171875l-1.546875 0l0 -1.640625l1.546875 0l0 -3.078125l2.09375 -1.265625l0 4.34375l2.125 0l0 1.640625l-2.125 0l0 7.28125q0 0.90625 0.109375 1.171875q0.125 0.25 0.375 0.40625q0.25 0.140625 0.71875 0.140625q0.34375 0 0.921875 -0.078125zm1.2773438 -4.328125q0 -3.46875 1.921875 -5.125q1.609375 -1.390625 3.921875 -1.390625q2.5625 0 4.1875 1.6875q1.625 1.6875 1.625 4.640625q0 2.40625 -0.71875 3.78125q-0.71875 1.375 -2.09375 2.140625q-1.375 0.765625 -3.0 0.765625q-2.625 0 -4.234375 -1.671875q-1.609375 -1.6875 -1.609375 -4.828125zm2.171875 0q0 2.390625 1.03125 3.578125q1.046875 1.1875 2.640625 1.1875q1.5625 0 2.609375 -1.1875q1.046875 -1.203125 1.046875 -3.65625q0 -2.3125 -1.0625 -3.5q-1.046875 -1.1875 -2.59375 -1.1875q-1.59375 0 -2.640625 1.1875q-1.03125 1.1875 -1.03125 3.578125zm20.035156 6.21875l0 -1.578125q-1.1875 1.859375 -3.484375 1.859375q-1.484375 0 -2.734375 -0.8125q-1.25 -0.828125 -1.9375 -2.296875q-0.671875 -1.46875 -0.671875 -3.390625q0 -1.859375 0.609375 -3.375q0.625 -1.515625 1.859375 -2.328125q1.25 -0.8125 2.78125 -0.8125q1.125 0 2.0 0.484375q0.890625 0.46875 1.4375 1.234375l0 -6.171875l2.09375 0l0 17.1875l-1.953125 0zm-6.671875 -6.21875q0 2.390625 1.0 3.578125q1.015625 1.1875 2.390625 1.1875q1.390625 0 2.34375 -1.125q0.96875 -1.140625 0.96875 -3.453125q0 -2.5625 -0.984375 -3.75q-0.984375 -1.203125 -2.421875 -1.203125q-1.40625 0 -2.359375 1.15625q-0.9375 1.140625 -0.9375 3.609375zm20.472656 2.203125l2.171875 0.28125q-0.515625 1.90625 -1.90625 2.96875q-1.390625 1.046875 -3.5625 1.046875q-2.734375 0 -4.34375 -1.671875q-1.59375 -1.6875 -1.59375 -4.734375q0 -3.140625 1.609375 -4.875q1.625 -1.734375 4.203125 -1.734375q2.5 0 4.078125 1.703125q1.59375 1.703125 1.59375 4.78125q0 0.1875 -0.015625 0.5625l-9.28125 0q0.109375 2.046875 1.15625 3.140625q1.046875 1.09375 2.609375 1.09375q1.15625 0 1.96875 -0.609375q0.828125 -0.609375 1.3125 -1.953125zm-6.9375 -3.40625l6.953125 0q-0.140625 -1.5625 -0.796875 -2.359375q-1.0 -1.21875 -2.609375 -1.21875q-1.453125 0 -2.453125 0.984375q-0.984375 0.96875 -1.09375 2.59375z" fill-rule="nonzero"></path><path fill="#000000" fill-opacity="0.0" d="m243.74278 293.77692c0 120.66141 45.070877 241.32281 90.14174 241.32281" fill-rule="evenodd"></path><path stroke="#000000" stroke-width="1.0" stroke-linejoin="round" stroke-linecap="butt" d="m243.74278 293.77692c0 120.66141 45.070877 241.32281 90.14174 241.32281" fill-rule="evenodd"></path><path fill="#000000" fill-opacity="0.0" d="m716.25775 293.77692c0 120.66141 -52.0 241.32281 -104.0 241.32281" fill-rule="evenodd"></path><path stroke="#000000" stroke-width="1.0" stroke-linejoin="round" stroke-linecap="butt" d="m716.25775 293.77692c0 120.66141 -52.0 241.32281 -104.0 241.32281" fill-rule="evenodd"></path><path fill="#000000" fill-opacity="0.0" d="m333.89285 535.0899l0 0" fill-rule="evenodd"></path><path stroke="#000000" stroke-width="1.0" stroke-linejoin="round" stroke-linecap="butt" d="m333.89285 535.08997l0 0" fill-rule="evenodd"></path><path fill="#000000" stroke="#000000" stroke-width="1.0" stroke-linecap="butt" d="m333.89285 536.74164l4.5381165 -1.6516724l-4.5381165 -1.6517334z" fill-rule="evenodd"></path><path fill="#000000" fill-opacity="0.0" d="m612.25507 535.0899l-13.480286 0" fill-rule="evenodd"></path><path stroke="#000000" stroke-width="1.0" stroke-linejoin="round" stroke-linecap="butt" d="m612.25507 535.08997l-7.4802856 0" fill-rule="evenodd"></path><path fill="#000000" stroke="#000000" stroke-width="1.0" stroke-linecap="butt" d="m604.7748 533.43823l-4.538086 1.6517334l4.538086 1.6516724z" fill-rule="evenodd"></path></g></svg>

