<?xml version="1.0" encoding="utf-8"?>
<!-- Generator: Adobe Illustrator 19.2.0, SVG Export Plug-In . SVG Version: 6.00 Build 0)  -->
<svg version="1.1" id="earthstars" xmlns="http://www.w3.org/2000/svg" xmlns:xlink="http://www.w3.org/1999/xlink" x="0px" y="0px"
	 viewBox="0 0 206.6252 222.625" enable-background="new 0 0 206.6252 222.625" xml:space="preserve">
<g>
	<path fill="#3BABB7" d="M83.3127,47.3125c-39.6993,0-72,32.3009-72,72c0,39.6993,32.3007,72,72,72c39.6991,0,72-32.3007,72-72
		C155.3127,79.6134,123.0118,47.3125,83.3127,47.3125z M30.375,83.3986c2.4417,1.4532,9.0588,5.5664,14.0236,10.3788
		c3.4688,3.3631,5.0664,5.8164,5.0312,7.7148c-0.0272,1.6132-1.2696,3.5352-3.6836,5.7112
		c-3.3084,2.9804-4.7228,6.738-3.9764,10.5856c1.492,7.7152,11.0896,13.7776,19.57,16.8828c5.7228,2.09,8.098,3.75,9.0548,4.6136
		c-5.8712,2.2576-28.0704,1.5-48.1368-0.7932c-1.91-6.0584-2.9451-12.5-2.9451-19.1797
		C19.3127,106.0078,23.3986,93.6485,30.375,83.3986z M25.6642,146.9258c8.3632,0.8867,19.09,1.7696,28.6836,1.7696
		c10.168,0,19.0468-0.992,22.4376-4.0236c1.4528-1.2968,2.238-3.0193,2.2188-4.8476c-0.0824-6.496-8.5508-10.3397-14.9144-12.668
		c-8.6404-3.156-13.902-7.9688-14.4648-10.8864c-0.0896-0.4573-0.2968-1.5276,1.4728-3.1213
		c4.1876-3.7735,6.2576-7.5351,6.332-11.508c0.1016-5.5155-3.7148-9.9723-7.4608-13.6051c-5.0352-4.8792-11.3792-9-14.6056-10.9688
		C47.1018,63.7618,64.219,55.3125,83.3127,55.3125c14.8671,0,28.5271,5.1409,39.4063,13.6757
		c-0.9572,3.4883-4.3868,12.344-15.3752,17.3203c-13.7344,6.2189-16.2108,7.34-15.7264,17.6017
		c0.0544,1.168,0.1172,2.5236,0.1328,4.1212c0.086,9.2148,6.0705,12.6952,11.3516,15.7656c3.3516,1.9492,6.8164,3.9648,9.6756,7.574
		c4.922,6.2112,5.2268,11.1564,5.5508,16.3868c0.1485,2.414,0.3048,4.9104,0.9532,7.4024c1.3396,5.1443,4.66,9.0352,7.1132,11.344
		c-11.3868,10.402-26.4804,16.8083-43.0819,16.8083C57.9218,183.3125,36.0002,168.4102,25.6642,146.9258z M131.969,160.7814
		c-1.68-1.5588-4.0664-4.25-4.9456-7.6369c-0.4528-1.7419-0.574-3.66-0.7107-5.8787c-0.3477-5.6524-0.7853-12.6836-7.2617-20.8632
		c-3.8008-4.7932-8.3088-7.4144-11.93-9.5196c-5.2108-3.0312-7.328-4.4416-7.3708-8.9296c-0.0156-1.7112-0.082-3.1644-0.1408-4.418
		c-0.2304-4.84-0.2304-4.84,11.0313-9.9376c11.0783-5.0156,16.2071-13.2032,18.5235-18.84
		c11.2108,11.5352,18.1485,27.2424,18.1485,44.5547C147.3127,135.129,141.5118,149.5978,131.969,160.7814z"/>
	<path fill="#50CCD3" d="M129.1642,74.7578c-2.3164,5.6368-7.4452,13.8244-18.5235,18.84
		c-11.2617,5.0976-11.2617,5.0976-11.0313,9.9376c0.0588,1.2536,0.1252,2.7068,0.1408,4.418c0.0428,4.488,2.16,5.8984,7.3708,8.9296
		c3.6212,2.1052,8.1292,4.7264,11.93,9.5196c6.4764,8.1796,6.914,15.2108,7.2617,20.8632c0.1367,2.2187,0.2579,4.1368,0.7107,5.8787
		c0.8792,3.3869,3.2656,6.0781,4.9456,7.6369c9.5428-11.1836,15.3437-25.6524,15.3437-41.4689
		C147.3127,102.0002,140.375,86.293,129.1642,74.7578z"/>
	<path fill="#50CCD3" d="M70.3946,139.2854c-0.9568-0.8636-3.332-2.5236-9.0548-4.6136c-8.4804-3.1052-18.078-9.1676-19.57-16.8828
		c-0.7464-3.8476,0.668-7.6052,3.9764-10.5856c2.414-2.176,3.6564-4.098,3.6836-5.7112c0.0352-1.8984-1.5624-4.3517-5.0312-7.7148
		c-4.9648-4.8124-11.5819-8.9256-14.0236-10.3788c-6.9764,10.2499-11.0623,22.6092-11.0623,35.9139
		c0,6.6797,1.0351,13.1213,2.9451,19.1797C42.3242,140.7854,64.5234,141.543,70.3946,139.2854z"/>
	<path fill="#50CCD3" d="M119.2814,155.1602c-0.6484-2.492-0.8047-4.9884-0.9532-7.4024
		c-0.324-5.2304-0.6288-10.1756-5.5508-16.3868c-2.8592-3.6092-6.324-5.6248-9.6756-7.574
		c-5.2811-3.0704-11.2656-6.5508-11.3516-15.7656c-0.0156-1.5976-0.0784-2.9532-0.1328-4.1212
		c-0.4844-10.2617,1.992-11.3828,15.7264-17.6017c10.9884-4.9763,14.418-13.832,15.3752-17.3203
		c-10.8792-8.5348-24.5392-13.6757-39.4063-13.6757c-19.0937,0-36.2109,8.4493-47.9493,21.7541
		c3.2264,1.9688,9.5704,6.0896,14.6056,10.9688c3.746,3.6328,7.5624,8.0896,7.4608,13.6051
		c-0.0744,3.9729-2.1444,7.7345-6.332,11.508c-1.7696,1.5937-1.5624,2.664-1.4728,3.1213
		c0.5628,2.9176,5.8244,7.7304,14.4648,10.8864c6.3636,2.3283,14.832,6.172,14.9144,12.668
		c0.0192,1.8283-0.766,3.5508-2.2188,4.8476c-3.3908,3.0316-12.2696,4.0236-22.4376,4.0236c-9.5936,0-20.3204-0.8829-28.6836-1.7696
		c10.336,21.4844,32.2576,36.3867,57.6485,36.3867c16.6015,0,31.6951-6.4063,43.0819-16.8083
		C123.9414,164.1954,120.621,160.3045,119.2814,155.1602z"/>
	<path fill="#746DE0" d="M23.797,53.4534c0.7812,0.7812,1.8048,1.1716,2.828,1.1716c1.0237,0,2.0468-0.3904,2.8284-1.1716
		c1.5624-1.5628,1.5624-4.094,0-5.6564l-8.4844-8.4845l8.4844-8.4843c1.5624-1.5624,1.5624-4.0936,0-5.6564
		c-1.5628-1.5624-4.094-1.5624-5.6564,0l-8.4843,8.4844l-8.4845-8.4844c-1.5624-1.5624-4.0936-1.5624-5.6564,0
		c-1.5624,1.5628-1.5624,4.094,0,5.6564l8.4844,8.4843L1.1718,47.797c-1.5624,1.5624-1.5624,4.0936,0,5.6564
		c0.7816,0.7812,1.8049,1.1716,2.8284,1.1716c1.0232,0,2.0468-0.3904,2.828-1.1716l8.4845-8.4844L23.797,53.4534z"/>
	<path fill="#746DE0" d="M133.1718,29.4534c0.7816,0.7812,1.8049,1.1716,2.8284,1.1716c1.0232,0,2.0468-0.3904,2.828-1.1716
		l8.4845-8.4844l8.4843,8.4844c0.7812,0.7812,1.8048,1.1716,2.828,1.1716c1.0237,0,2.0468-0.3904,2.8284-1.1716
		c1.5624-1.5628,1.5624-4.094,0-5.6564l-8.4844-8.4845l8.4844-8.4843c1.5624-1.5624,1.5624-4.0936,0-5.6564
		c-1.5628-1.5624-4.094-1.5624-5.6564,0l-8.4843,8.4844l-8.4845-8.4844c-1.5624-1.5624-4.0936-1.5624-5.6564,0
		c-1.5624,1.5628-1.5624,4.094,0,5.6564l8.4844,8.4843l-8.4844,8.4845C131.6094,25.3594,131.6094,27.8906,133.1718,29.4534z"/>
	<path fill="#746DE0" d="M196.969,75.3125l8.4844-8.4843c1.5624-1.5624,1.5624-4.0936,0-5.6564
		c-1.5628-1.5624-4.094-1.5624-5.6564,0l-8.4843,8.4844l-8.4845-8.4844c-1.5624-1.5624-4.0936-1.5624-5.6564,0
		c-1.5624,1.5628-1.5624,4.094,0,5.6564l8.4844,8.4843l-8.4844,8.4845c-1.5624,1.5624-1.5624,4.0936,0,5.6564
		c0.7816,0.7812,1.8049,1.1716,2.8284,1.1716c1.0232,0,2.0468-0.3904,2.828-1.1716l8.4845-8.4844l8.4843,8.4844
		c0.7812,0.7812,1.8048,1.1716,2.828,1.1716c1.0237,0,2.0468-0.3904,2.8284-1.1716c1.5624-1.5628,1.5624-4.094,0-5.6564
		L196.969,75.3125z"/>
	<path fill="#746DE0" d="M165.4534,193.1718c-1.5628-1.5624-4.094-1.5624-5.6564,0l-8.4843,8.4844l-8.4845-8.4844
		c-1.5624-1.5624-4.0936-1.5624-5.6564,0c-1.5624,1.5628-1.5624,4.094,0,5.6564l8.4844,8.4843l-8.4844,8.4845
		c-1.5624,1.5624-1.5624,4.0936,0,5.6564c0.7816,0.7812,1.8049,1.1716,2.8284,1.1716c1.0232,0,2.0468-0.3904,2.828-1.1716
		l8.4845-8.4844l8.4843,8.4844c0.7812,0.7812,1.8048,1.1716,2.828,1.1716c1.0237,0,2.0468-0.3904,2.8284-1.1716
		c1.5624-1.5628,1.5624-4.094,0-5.6564l-8.4844-8.4845l8.4844-8.4843C167.0158,197.2658,167.0158,194.7346,165.4534,193.1718z"/>
</g>
</svg>
