<?xml version="1.0" encoding="utf-8"?>
<!-- Generator: Adobe Illustrator 19.2.0, SVG Export Plug-In . SVG Version: 6.00 Build 0)  -->
<svg version="1.1" id="electronics" xmlns="http://www.w3.org/2000/svg" xmlns:xlink="http://www.w3.org/1999/xlink" x="0px"
	 y="0px" viewBox="0 0 214 184" enable-background="new 0 0 214 184" xml:space="preserve">
<g>
	<path fill="#C1DB66" d="M188,32v-8h8.9571c-3.5508-13.7967-16.0352-24-30.9416-24H45.9843c-14.91,0-27.3908,10.2033-30.9416,24H26
		v8H14v24h12v8H14v24h12v8H14v24h12v8H14v24h12v8H15.0427c3.5508,13.7989,16.0352,24,30.9416,24h120.0312
		c14.91,0,27.3908-10.2051,30.9416-24H188v-8h10v-24h-10v-8h10V96h-10v-8h10V64h-10v-8h10V32H188z M38,24h136v136H38V24z"/>
	<path fill="#49A25A" d="M174,24H38v136h136V24z M94,140H58v-36h8v28h28V140z M94,52H66v28h-8V44h36V52z M154,140h-36v-8h28v-28h8
		V140z M154,80h-8V52h-28v-8h36V80z"/>
	<polygon fill="#C1DB66" points="58,80 66,80 66,52 94,52 94,44 58,44 	"/>
	<polygon fill="#C1DB66" points="146,132 118,132 118,140 154,140 154,104 146,104 	"/>
	<polygon fill="#C1DB66" points="66,104 58,104 58,140 94,140 94,132 66,132 	"/>
	<polygon fill="#C1DB66" points="118,52 146,52 146,80 154,80 154,44 118,44 	"/>
	<polygon fill="#A48659" points="188,24 188,32 198,32 214,32 214,24 196.9571,24 	"/>
	<polygon fill="#A48659" points="26,32 26,24 15.0427,24 0,24 0,32 14,32 	"/>
	<polygon fill="#A48659" points="188,56 188,64 198,64 214,64 214,56 198,56 	"/>
	<polygon fill="#A48659" points="26,64 26,56 14,56 0,56 0,64 14,64 	"/>
	<polygon fill="#A48659" points="188,152 188,160 196.9571,160 214,160 214,152 198,152 	"/>
	<polygon fill="#A48659" points="26,160 26,152 14,152 0,152 0,160 15.0427,160 	"/>
	<polygon fill="#A48659" points="188,120 188,128 198,128 214,128 214,120 198,120 	"/>
	<polygon fill="#A48659" points="26,128 26,120 14,120 0,120 0,128 14,128 	"/>
	<polygon fill="#A48659" points="188,88 188,96 198,96 214,96 214,88 198,88 	"/>
	<polygon fill="#A48659" points="26,96 26,88 14,88 0,88 0,96 14,96 	"/>
</g>
</svg>
