<?xml version="1.0" encoding="utf-8"?>
<!-- Generator: Adobe Illustrator 19.2.0, SVG Export Plug-In . SVG Version: 6.00 Build 0)  -->
<svg version="1.1" id="spaceship" xmlns="http://www.w3.org/2000/svg" xmlns:xlink="http://www.w3.org/1999/xlink" x="0px" y="0px"
	 viewBox="0 0 213.5673 202.5057" enable-background="new 0 0 213.5673 202.5057" xml:space="preserve">
<g>
	<path fill="#FE7D71" d="M210.668,5.8925c-0.3476-1.4864-1.5076-2.6468-2.996-2.9924
		c-37.2812-8.6544-75.6992,2.3284-102.7384,29.3652C92.586,44.6169,83.3204,59.7733,78.008,76.2773
		c-1.4648-0.1604-2.9415-0.254-4.4104-0.2796c-16.5468-0.25-31.6716,7.7072-40.7968,21.3848
		c-0.9412,1.416-0.8903,3.2716,0.1368,4.6292c1.0236,1.3592,2.7929,1.9176,4.414,1.4004c3.7149-1.1916,7.5976-1.8304,11.5352-1.8968
		c0.2384-0.0036,0.4728-0.0056,0.7072-0.0056c15.8476,0,30.16,9.2928,36.5936,23.834c0.4024,0.91,1.1288,1.6364,2.0392,2.0388
		c14.7576,6.5276,24.1092,21.168,23.824,37.3028c-0.0664,3.9276-0.7032,7.8088-1.8944,11.5352
		c-0.5196,1.6192,0.0428,3.3888,1.4024,4.412c0.7108,0.5372,1.5584,0.8068,2.406,0.8068c0.7737,0,1.5472-0.2228,2.2188-0.672
		c13.676-9.1248,21.672-24.3748,21.3869-40.7948c-0.0273-1.4748-0.1173-2.9492-0.2773-4.412
		c16.5116-5.3204,31.664-14.582,44.0076-26.928C208.34,81.5937,219.3204,43.1853,210.668,5.8925z M150.1916,100.1445
		c-4.9104,4.912-11.4416,7.6152-18.3868,7.6152c-6.9452,0-13.4728-2.7032-18.3828-7.6152
		c-4.91-4.9104-7.6172-11.4396-7.6172-18.3848c0-6.9436,2.7072-13.4728,7.6172-18.3848c10.1328-10.1428,26.6288-10.1348,36.7696,0
		C160.3244,73.5133,160.3244,90.0077,150.1916,100.1445z M158.676,54.8905c-3.4024-3.4004-5.2735-7.92-5.2735-12.7284
		c0-4.8088,1.8711-9.3284,5.2735-12.7268c3.4025-3.4004,7.9216-5.2716,12.7265-5.2716c4.8087,0,9.328,1.8712,12.7267,5.2716
		c3.402,3.3984,5.2733,7.918,5.2733,12.7268c0,4.8084-1.8713,9.328-5.2733,12.7284c-3.3987,3.4004-7.918,5.2716-12.7267,5.2716
		C166.5976,60.1621,162.0785,58.2909,158.676,54.8905z"/>
	<path fill="#FFDC82" d="M189.4025,42.1621c0-4.8088-1.8713-9.3284-5.2733-12.7268c-3.3987-3.4004-7.918-5.2716-12.7267-5.2716
		c-4.8049,0-9.324,1.8712-12.7265,5.2716c-3.4024,3.3984-5.2735,7.918-5.2735,12.7268c0,4.8084,1.8711,9.328,5.2735,12.7284
		c3.4025,3.4004,7.9216,5.2716,12.7265,5.2716c4.8087,0,9.328-1.8712,12.7267-5.2716
		C187.5312,51.4901,189.4025,46.9705,189.4025,42.1621z M174.2305,42.1637c-3.1249,3.1232-8.1873,3.1232-11.3125,0
		c-3.1248-3.1248-3.1248-8.1912,0-11.3164c3.1252-3.1228,8.1876-3.1228,11.3125,0
		C177.3556,33.9725,177.3556,39.0389,174.2305,42.1637z"/>
	
		<ellipse transform="matrix(0.7072 -0.707 0.707 0.7072 23.5449 129.8674)" fill="#F8A131" cx="168.5742" cy="36.5055" rx="8.0005" ry="8.0005"/>
	<path fill="#FFDC82" d="M113.422,63.3749c-4.91,4.912-7.6172,11.4412-7.6172,18.3848c0,6.9452,2.7072,13.4744,7.6172,18.3848
		c4.91,4.912,11.4376,7.6152,18.3828,7.6152c6.9452,0,13.4764-2.7032,18.3868-7.6152c10.1328-10.1368,10.1328-26.6312,0-36.7696
		C140.0508,53.2401,123.5548,53.2321,113.422,63.3749z M136.8752,98.9765c-4.1327,4.1308-10.836,4.1308-14.9687,0
		c-4.1329-4.1368-4.1329-10.84,0-14.9728c4.1327-4.1368,10.836-4.1368,14.9687,0C141.012,88.1365,141.012,94.8397,136.8752,98.9765z
		"/>
	
		<ellipse transform="matrix(0.7072 -0.707 0.707 0.7072 -26.7993 118.2685)" fill="#F8A131" cx="129.3909" cy="91.4901" rx="10.5859" ry="10.5859"/>
	<path fill="#EB4548" d="M59.5705,127.9921c-6.9453,0-13.4729,2.7048-18.3829,7.6152
		c-9.1992,9.1952-16.2576,45.0644-17.0352,49.1248c-0.2459,1.3008,0.164,2.6428,1.1016,3.5784
		c0.758,0.7576,1.7772,1.1716,2.828,1.1716c0.25,0,0.5-0.0232,0.75-0.07c4.0588-0.7756,39.926-7.838,49.1252-17.0352
		c10.1368-10.1368,10.1368-26.6328,0-36.7696C73.0468,130.6953,66.5156,127.9921,59.5705,127.9921z"/>
	
		<rect x="-12.2594" y="171.8874" transform="matrix(0.2344 -0.9721 0.9721 0.2344 -164.2289 143.2443)" fill="#EB4548" width="42.1753" height="8.0003"/>
	
		<rect x="52.0236" y="193.3344" transform="matrix(0.9955 -0.0953 0.0953 0.9955 -18.5044 7.0482)" fill="#EB4548" width="25.0898" height="7.9992"/>
</g>
</svg>
