<?xml version="1.0" encoding="utf-8"?>
<!-- Generator: Adobe Illustrator 19.2.0, SVG Export Plug-In . SVG Version: 6.00 Build 0)  -->
<svg version="1.1" id="stars" xmlns="http://www.w3.org/2000/svg" xmlns:xlink="http://www.w3.org/1999/xlink" x="0px" y="0px"
	 viewBox="0 0 196 220" enable-background="new 0 0 196 220" xml:space="preserve">
<g>
	<path fill="#7BE5E4" d="M64,48c1.7263,0,3.2539-1.1056,3.7967-2.742l4.34-13.1212l13.1212-4.34C86.8943,27.254,88,25.7264,88,24
		s-1.1057-3.254-2.7421-3.7968l-13.1212-4.34l-4.34-13.1212C67.2539,1.1056,65.7263,0,64,0c-1.7265,0-3.2541,1.1056-3.7969,2.742
		l-4.34,13.1212l-13.1212,4.34C41.1055,20.746,40,22.2736,40,24s1.1055,3.254,2.7419,3.7968l13.1212,4.34l4.34,13.1212
		C60.7459,46.8944,62.2735,48,64,48z"/>
	<path fill="#7BE5E4" d="M45.2579,56.2032l-13.1212-4.34l-4.34-13.1212C27.2539,37.1056,25.7263,36,24,36
		c-1.7265,0-3.2541,1.1056-3.7969,2.742l-4.34,13.1212l-13.1212,4.34C1.1055,56.746,0,58.2736,0,60s1.1055,3.254,2.7419,3.7968
		l13.1212,4.34l4.34,13.1212C20.7459,82.8944,22.2735,84,24,84c1.7263,0,3.2539-1.1056,3.7967-2.742l4.34-13.1212l13.1212-4.34
		C46.8943,63.254,48,61.7264,48,60S46.8943,56.746,45.2579,56.2032z"/>
	<path fill="#7BE5E4" d="M105.2579,192.2032l-13.1212-4.34l-4.34-13.1212C87.2539,173.1056,85.7263,172,84,172
		c-1.7265,0-3.2541,1.1056-3.7969,2.742l-4.34,13.1212l-13.1212,4.34C61.1055,192.746,60,194.2736,60,196
		s1.1055,3.254,2.7419,3.7968l13.1212,4.34l4.34,13.1212C80.7459,218.8944,82.2735,220,84,220c1.7263,0,3.2539-1.1056,3.7967-2.742
		l4.34-13.1212l13.1212-4.34C106.8943,199.254,108,197.7264,108,196S106.8943,192.746,105.2579,192.2032z"/>
	<path fill="#7BE5E4" d="M193.2579,52.2032l-19.1292-6.332l-6.332-19.1292C167.2539,25.1056,165.7263,24,164,24
		c-1.7265,0-3.2541,1.1056-3.7969,2.742l-6.332,19.1292l-19.1292,6.332C133.1055,52.746,132,54.2736,132,56
		s1.1055,3.254,2.7419,3.7968l19.1292,6.332l6.332,19.1292C160.7459,86.8944,162.2735,88,164,88
		c1.7263,0,3.2539-1.1056,3.7967-2.742l6.332-19.1292l19.1292-6.332C194.8943,59.254,196,57.7264,196,56
		S194.8943,52.746,193.2579,52.2032z"/>
	<path fill="#3BABB7" d="M139.1991,114.2032l-23.5936-7.8088l-7.8088-23.5936c-0.5428-1.6368-2.0704-2.7424-3.7967-2.7424
		c-1.7265,0-3.2541,1.1056-3.7969,2.7424l-7.8088,23.5936l-23.5936,7.8088c-1.6367,0.5428-2.7424,2.0704-2.7424,3.7968
		s1.1057,3.254,2.7424,3.7968l23.5936,7.8088l7.8088,23.5936c0.5428,1.6368,2.0704,2.7424,3.7969,2.7424
		c1.7263,0,3.2539-1.1056,3.7967-2.7424l7.8088-23.5936l23.5936-7.8088c1.6369-0.5428,2.7424-2.0704,2.7424-3.7968
		S140.836,114.746,139.1991,114.2032z"/>
</g>
</svg>
