<?xml version="1.0" encoding="utf-8"?>
<!-- Generator: Adobe Illustrator 19.2.0, SVG Export Plug-In . SVG Version: 6.00 Build 0)  -->
<svg version="1.1" id="starconstelation" xmlns="http://www.w3.org/2000/svg" xmlns:xlink="http://www.w3.org/1999/xlink" x="0px"
	 y="0px" viewBox="0 0 232.9376 229.0528" enable-background="new 0 0 232.9376 229.0528" xml:space="preserve">
<g>
	<path fill="none" d="M103.7228,61.1152c-0.496,1.7092-2.0624,2.8848-3.84,2.8848c-1.7772,0-3.3436-1.1756-3.8396-2.8848
		l-4.4143-15.1876L45.914,91.6232l15.2032,4.418C62.8244,96.5392,64,98.1036,64,99.8828c0,1.7792-1.1756,3.344-2.8828,3.842
		l-15.2032,4.418l42.8829,42.8808l4.4179-15.2012c0.496-1.7072,2.0624-2.8828,3.84-2.8828c1.7772,0,3.3436,1.1756,3.8396,2.8828
		l4.418,15.2012l45.7228-45.7072l-15.2148-4.422c-1.7072-0.498-2.8828-2.0624-2.8828-3.8416c0-1.7792,1.1756-3.3436,2.8828-3.842
		l15.2032-4.4176L108.1409,45.916L103.7228,61.1152z"/>
	<polygon fill="#FCC24C" points="108.1409,45.916 151.0236,88.7932 155.4064,87.5196 156.6796,83.1388 113.7969,40.258 
		109.414,41.5312 	"/>
	<polygon fill="#FCC24C" points="88.7969,151.0236 45.914,108.1428 41.5312,109.416 40.258,113.7988 83.1409,156.6796 
		87.5236,155.4064 	"/>
	<polygon fill="#FCC24C" points="45.914,91.6232 91.6289,45.9276 90.3516,41.5312 85.9804,40.2616 40.258,85.9668 41.5312,90.3496 	
		"/>
	<polygon fill="#FCC24C" points="151.0352,105.3164 105.3124,151.0236 106.586,155.4064 110.9689,156.6796 156.6836,110.9824 
		155.4064,106.586 	"/>
	<path fill="#F8A131" d="M91.6289,45.9276l4.4143,15.1876C96.5392,62.8244,98.1056,64,99.8828,64c1.7776,0,3.344-1.1756,3.84-2.8848
		l4.4181-15.1992l1.2731-4.3848l4.3829-1.2732L129,35.842c1.7072-0.4964,2.8828-2.0628,2.8828-3.842
		c0-1.7792-1.1756-3.3436-2.8828-3.8416l-19.586-5.6916l-5.6912-19.584C103.2268,1.176,101.6604,0,99.8828,0
		c-1.7772,0-3.3436,1.176-3.8396,2.8828l-5.6916,19.584l-19.586,5.6916c-1.7068,0.498-2.8828,2.0624-2.8828,3.8416
		c0,1.7792,1.176,3.3456,2.8828,3.842l15.2148,4.4196l4.3712,1.2696L91.6289,45.9276z"/>
	<path fill="#F8A131" d="M194.0548,100.8944c1.7068-0.498,2.8828-2.0624,2.8828-3.8416c0-1.7792-1.176-3.3436-2.8828-3.842
		l-19.5859-5.6912l-5.6917-19.584c-0.496-1.7072-2.0624-2.8828-3.8396-2.8828c-1.7772,0-3.3436,1.1756-3.84,2.8828l-4.418,15.2032
		l-1.2732,4.3808l-4.3828,1.2736l-15.2032,4.4176c-1.7072,0.4984-2.8828,2.0628-2.8828,3.842c0,1.7792,1.1756,3.3436,2.8828,3.8416
		l15.2148,4.422l4.3712,1.2696l1.2772,4.3964l4.414,15.1876c0.4964,1.7072,2.0628,2.8828,3.84,2.8828
		c1.7772,0,3.3436-1.1756,3.8396-2.8828l5.6917-19.584L194.0548,100.8944z"/>
	<path fill="#FD5A5A" d="M230.0548,193.2108l-19.5859-5.6912l-5.6917-19.584c-0.496-1.7072-2.0624-2.8828-3.8396-2.8828
		c-1.7772,0-3.3436,1.1756-3.84,2.8828l-5.6912,19.584l-19.586,5.6912c-1.7072,0.4984-2.8828,2.0628-2.8828,3.842
		c0,1.7792,1.1756,3.3436,2.8828,3.8416l19.586,5.6916l5.6912,19.584c0.4964,1.7072,2.0628,2.8828,3.84,2.8828
		c1.7772,0,3.3436-1.1756,3.8396-2.8828l5.6917-19.584l19.5859-5.6916c1.7068-0.498,2.8828-2.0624,2.8828-3.8416
		C232.9376,195.2736,231.7616,193.7092,230.0548,193.2108z"/>
	<path fill="#F8A131" d="M45.914,108.1428l15.2032-4.418C62.8244,103.2268,64,101.662,64,99.8828
		c0-1.7792-1.1756-3.3436-2.8828-3.8416l-15.2032-4.418l-4.3828-1.2736l-1.2732-4.3828L35.84,70.7656
		c-0.496-1.7068-2.0628-2.8828-3.84-2.8828c-1.7772,0-3.3436,1.176-3.8396,2.8828l-5.6915,19.584L2.8828,96.0412
		C1.176,96.5392,0,98.1036,0,99.8828c0,1.7792,1.176,3.344,2.8828,3.842l19.5861,5.6912L28.1604,129
		c0.496,1.7072,2.0624,2.8828,3.8396,2.8828c1.7772,0,3.344-1.1756,3.84-2.8828l4.418-15.2012l1.2732-4.3828L45.914,108.1428z"/>
	<path fill="#F8A131" d="M105.3124,151.0236l-4.418-15.2012c-0.496-1.7072-2.0624-2.8828-3.8396-2.8828
		c-1.7776,0-3.344,1.1756-3.84,2.8828l-4.4179,15.2012l-1.2733,4.3828l-4.3827,1.2732l-15.2033,4.418
		c-1.7072,0.498-2.8828,2.0628-2.8828,3.842c0,1.7792,1.1756,3.3436,2.8828,3.8416l19.586,5.6916l5.6912,19.584
		c0.496,1.7068,2.0624,2.8828,3.84,2.8828c1.7772,0,3.3436-1.176,3.8396-2.8828l5.6916-19.584l19.586-5.6916
		c1.7068-0.498,2.8828-2.0624,2.8828-3.8416c0-1.7792-1.176-3.344-2.8828-3.842l-15.2031-4.418l-4.3829-1.2732L105.3124,151.0236z"
		/>
</g>
</svg>
