<?xml version="1.0" encoding="utf-8"?>
<!-- Generator: Adobe Illustrator 19.2.0, SVG Export Plug-In . SVG Version: 6.00 Build 0)  -->
<svg version="1.1" id="telescope" xmlns="http://www.w3.org/2000/svg" xmlns:xlink="http://www.w3.org/1999/xlink" x="0px" y="0px"
	 viewBox="0 0 236.5866 201.1774" enable-background="new 0 0 236.5866 201.1774" xml:space="preserve">
<g>
	<path fill="#746DE0" d="M149.2586,40.9334c0.4568-2.1624-0.9219-4.2852-3.0824-4.7444L71.8407,20.3902l-8.3165,39.1252
		l74.3356,15.8008c0.2776,0.0584,0.5548,0.0876,0.8324,0.0876c0.7656,0,1.5232-0.2204,2.1796-0.6444
		c0.8868-0.578,1.5116-1.4864,1.7344-2.5236l0.832-3.916l4.988-23.4744L149.2586,40.9334z"/>
	<polygon fill="#8F89F5" points="228.7586,51.697 226.6802,61.4782 148.4262,44.8454 143.4382,68.3198 221.6882,84.9526 
		219.6098,94.7378 227.4382,96.4002 236.5866,53.359 	"/>
	<path fill="#8F89F5" d="M72.6727,16.4762c0.2187-1.0372,0.0195-2.1212-0.5589-3.0096c-0.578-0.8908-1.4844-1.514-2.5232-1.7344
		L14.813,0.0894c-2.156-0.4628-4.2852,0.916-4.746,3.08L0.0866,50.1206c-0.2188,1.0372-0.0196,2.1212,0.5584,3.01
		c0.5784,0.8904,1.4844,1.5136,2.5237,1.7344l54.7771,11.6424c0.2812,0.0608,0.5589,0.088,0.836,0.088
		c1.8476,0,3.508-1.2872,3.9104-3.168l0.832-3.912l8.3165-39.1252L72.6727,16.4762z"/>
	<path fill="#4F676D" d="M132.9106,112.9782c3.4456-3.5936,5.5901-8.4416,5.5901-13.8008c0-11.0272-8.9729-20-20-20
		c-11.0273,0-20,8.9728-20,20c0,5.3592,2.1443,10.2072,5.5899,13.8008l-42.012,80.1992H45.3598v8h21.5628l43.7812-83.586
		c1.2108,0.5156,2.4804,0.914,3.7969,1.1816v80.4044h8V118.773c1.3163-0.2676,2.5859-0.666,3.7967-1.1816l43.7812,83.586h21.5628v-8
		h-16.7188L132.9106,112.9782z"/>
</g>
</svg>
